<svg width="239" height="175" viewBox="0 0 239 175" fill="none" xmlns="http://www.w3.org/2000/svg">
<path d="M166.094 174H50.9156C38.5488 174.009 26.6198 169.35 17.4431 160.929C8.26649 152.508 2.49659 140.924 1.25297 128.425C0.00934722 115.927 3.38068 103.404 10.7128 93.2882C18.045 83.172 28.8151 76.1831 40.9335 73.6778C44.2018 57.9322 52.6998 43.8066 65.0028 33.6695C77.3057 23.5324 92.6655 18 108.507 18C124.348 18 139.708 23.5324 152.011 33.6695C164.314 43.8066 172.812 57.9322 176.08 73.6778C188.196 76.1865 198.963 83.1769 206.292 93.2929C213.621 103.409 216.991 115.93 215.747 128.426C214.503 140.923 208.734 152.505 199.559 160.926C190.385 169.347 178.459 174.006 166.094 174ZM108.505 33.6009C95.3942 33.6127 82.74 38.4916 72.9237 47.3194C63.1074 56.1472 56.8057 68.3151 55.2048 81.5331L54.4438 87.8683L48.182 88.3675C39.2845 89.0772 31.0032 93.2595 25.0754 100.037C19.1476 106.814 16.034 115.66 16.3876 124.719C16.7411 133.778 20.5345 142.346 26.972 148.626C33.4094 154.905 41.9906 158.408 50.9156 158.4H166.094C175.019 158.409 183.601 154.906 190.039 148.627C196.477 142.348 200.271 133.78 200.625 124.721C200.979 115.662 197.865 106.815 191.937 100.038C186.009 93.2597 177.728 89.0772 168.83 88.3675L162.569 87.8683L161.812 81.5331C160.207 68.3152 153.904 56.1484 144.086 47.3211C134.269 38.4938 121.615 33.6145 108.505 33.6009Z" fill="white"/>
<path d="M211 67.9905C204.043 68.1776 197.295 65.5804 192.235 60.7673C187.174 55.9543 184.213 49.3176 184 42.3104C184.126 37.3076 185.655 32.4427 188.41 28.2778L205.398 2.81528C206.05 1.94096 206.896 1.23151 207.868 0.742919C208.84 0.254334 209.911 0 210.997 0C212.083 0 213.155 0.254334 214.127 0.742919C215.098 1.23151 215.944 1.94096 216.597 2.81528L233.379 27.944C236.245 32.1923 237.848 37.1762 238 42.3104C237.787 49.3176 234.826 55.9543 229.765 60.7673C224.705 65.5804 217.957 68.1776 211 67.9905ZM211 18.787L199.821 35.5297C198.424 37.5223 197.619 39.8741 197.5 42.3104C197.89 45.6407 199.481 48.7109 201.969 50.9387C204.457 53.1665 207.671 54.3971 211 54.3971C214.329 54.3971 217.543 53.1665 220.031 50.9387C222.519 48.7109 224.11 45.6407 224.5 42.3104C224.348 39.7436 223.47 37.2743 221.969 35.1945L211 18.787Z" fill="url(#paint0_linear_1_134)"/>
<defs>
<linearGradient id="paint0_linear_1_134" x1="184" y1="0" x2="244.269" y2="6.10472" gradientUnits="userSpaceOnUse">
<stop offset="0.0830383" stop-color="#E93D57"/>
<stop offset="1" stop-color="#A423BA"/>
</linearGradient>
</defs>
</svg>
