<svg width="568" height="44" viewBox="0 0 568 44" fill="none" xmlns="http://www.w3.org/2000/svg">
<path d="M0.828028 35V3.5H4.51803L18.648 27.305H16.668L30.618 3.5H34.308L34.353 35H30.033L29.988 10.295H31.023L18.603 31.175H16.533L4.02303 10.295H5.14803V35H0.828028ZM53.2115 35.27C51.1715 35.27 49.3715 34.895 47.8115 34.145C46.2815 33.395 45.0815 32.255 44.2115 30.725C43.3715 29.165 42.9515 27.215 42.9515 24.875V11.15H47.2715V24.38C47.2715 26.72 47.8265 28.475 48.9365 29.645C50.0765 30.815 51.6665 31.4 53.7065 31.4C55.2065 31.4 56.5115 31.1 57.6215 30.5C58.7315 29.87 59.5865 28.97 60.1865 27.8C60.7865 26.6 61.0865 25.16 61.0865 23.48V11.15H65.4065V35H61.3115V28.565L61.9865 30.275C61.2065 31.865 60.0365 33.095 58.4765 33.965C56.9165 34.835 55.1615 35.27 53.2115 35.27ZM80.4706 35.27C78.4906 35.27 76.6006 35 74.8006 34.46C73.0306 33.92 71.6356 33.26 70.6156 32.48L72.4156 29.06C73.4356 29.75 74.6956 30.335 76.1956 30.815C77.6956 31.295 79.2256 31.535 80.7856 31.535C82.7956 31.535 84.2356 31.25 85.1056 30.68C86.0056 30.11 86.4556 29.315 86.4556 28.295C86.4556 27.545 86.1856 26.96 85.6456 26.54C85.1056 26.12 84.3856 25.805 83.4856 25.595C82.6156 25.385 81.6406 25.205 80.5606 25.055C79.4806 24.875 78.4006 24.665 77.3206 24.425C76.2406 24.155 75.2506 23.795 74.3506 23.345C73.4506 22.865 72.7306 22.22 72.1906 21.41C71.6506 20.57 71.3806 19.46 71.3806 18.08C71.3806 16.64 71.7856 15.38 72.5956 14.3C73.4056 13.22 74.5456 12.395 76.0156 11.825C77.5156 11.225 79.2856 10.925 81.3256 10.925C82.8856 10.925 84.4606 11.12 86.0506 11.51C87.6706 11.87 88.9906 12.395 90.0106 13.085L88.1656 16.505C87.0856 15.785 85.9606 15.29 84.7906 15.02C83.6206 14.75 82.4506 14.615 81.2806 14.615C79.3906 14.615 77.9806 14.93 77.0506 15.56C76.1206 16.16 75.6556 16.94 75.6556 17.9C75.6556 18.71 75.9256 19.34 76.4656 19.79C77.0356 20.21 77.7556 20.54 78.6256 20.78C79.5256 21.02 80.5156 21.23 81.5956 21.41C82.6756 21.56 83.7556 21.77 84.8356 22.04C85.9156 22.28 86.8906 22.625 87.7606 23.075C88.6606 23.525 89.3806 24.155 89.9206 24.965C90.4906 25.775 90.7756 26.855 90.7756 28.205C90.7756 29.645 90.3556 30.89 89.5156 31.94C88.6756 32.99 87.4906 33.815 85.9606 34.415C84.4306 34.985 82.6006 35.27 80.4706 35.27ZM96.1746 35V11.15H100.495V35H96.1746ZM98.3346 6.56C97.4946 6.56 96.7896 6.29 96.2196 5.75C95.6796 5.21 95.4096 4.55 95.4096 3.77C95.4096 2.96 95.6796 2.285 96.2196 1.745C96.7896 1.205 97.4946 0.934999 98.3346 0.934999C99.1746 0.934999 99.8646 1.205 100.405 1.745C100.975 2.255 101.26 2.9 101.26 3.68C101.26 4.49 100.99 5.18 100.45 5.75C99.9096 6.29 99.2046 6.56 98.3346 6.56ZM119.138 35.27C116.708 35.27 114.533 34.745 112.613 33.695C110.723 32.645 109.238 31.205 108.158 29.375C107.078 27.545 106.538 25.445 106.538 23.075C106.538 20.705 107.078 18.605 108.158 16.775C109.238 14.945 110.723 13.52 112.613 12.5C114.533 11.45 116.708 10.925 119.138 10.925C121.298 10.925 123.218 11.36 124.898 12.23C126.608 13.07 127.928 14.33 128.858 16.01L125.573 18.125C124.793 16.955 123.833 16.1 122.693 15.56C121.583 14.99 120.383 14.705 119.093 14.705C117.533 14.705 116.138 15.05 114.908 15.74C113.678 16.43 112.703 17.405 111.983 18.665C111.263 19.895 110.903 21.365 110.903 23.075C110.903 24.785 111.263 26.27 111.983 27.53C112.703 28.79 113.678 29.765 114.908 30.455C116.138 31.145 117.533 31.49 119.093 31.49C120.383 31.49 121.583 31.22 122.693 30.68C123.833 30.11 124.793 29.24 125.573 28.07L128.858 30.14C127.928 31.79 126.608 33.065 124.898 33.965C123.218 34.835 121.298 35.27 119.138 35.27ZM154.726 35.27C152.326 35.27 150.466 34.625 149.146 33.335C147.826 32.045 147.166 30.2 147.166 27.8V5.93H151.486V27.62C151.486 28.91 151.801 29.9 152.431 30.59C153.091 31.28 154.021 31.625 155.221 31.625C156.571 31.625 157.696 31.25 158.596 30.5L159.946 33.605C159.286 34.175 158.491 34.595 157.561 34.865C156.661 35.135 155.716 35.27 154.726 35.27ZM143.116 14.705V11.15H158.326V14.705H143.116ZM177.904 10.925C179.854 10.925 181.564 11.3 183.034 12.05C184.534 12.8 185.704 13.94 186.544 15.47C187.384 17 187.804 18.935 187.804 21.275V35H183.484V21.77C183.484 19.46 182.914 17.72 181.774 16.55C180.664 15.38 179.089 14.795 177.049 14.795C175.519 14.795 174.184 15.095 173.044 15.695C171.904 16.295 171.019 17.18 170.389 18.35C169.789 19.52 169.489 20.975 169.489 22.715V35H165.169V1.61H169.489V17.585L168.634 15.875C169.414 14.315 170.614 13.1 172.234 12.23C173.854 11.36 175.744 10.925 177.904 10.925ZM210.604 35V29.96L210.379 29.015V20.42C210.379 18.59 209.839 17.18 208.759 16.19C207.709 15.17 206.119 14.66 203.989 14.66C202.579 14.66 201.199 14.9 199.849 15.38C198.499 15.83 197.359 16.445 196.429 17.225L194.629 13.985C195.859 12.995 197.329 12.245 199.039 11.735C200.779 11.195 202.594 10.925 204.484 10.925C207.754 10.925 210.274 11.72 212.044 13.31C213.814 14.9 214.699 17.33 214.699 20.6V35H210.604ZM202.774 35.27C201.004 35.27 199.444 34.97 198.094 34.37C196.774 33.77 195.754 32.945 195.034 31.895C194.314 30.815 193.954 29.6 193.954 28.25C193.954 26.96 194.254 25.79 194.854 24.74C195.484 23.69 196.489 22.85 197.869 22.22C199.279 21.59 201.169 21.275 203.539 21.275H211.099V24.38H203.719C201.559 24.38 200.104 24.74 199.354 25.46C198.604 26.18 198.229 27.05 198.229 28.07C198.229 29.24 198.694 30.185 199.624 30.905C200.554 31.595 201.844 31.94 203.494 31.94C205.114 31.94 206.524 31.58 207.724 30.86C208.954 30.14 209.839 29.09 210.379 27.71L211.234 30.68C210.664 32.09 209.659 33.215 208.219 34.055C206.779 34.865 204.964 35.27 202.774 35.27ZM230.883 35.27C228.483 35.27 226.623 34.625 225.303 33.335C223.983 32.045 223.323 30.2 223.323 27.8V5.93H227.643V27.62C227.643 28.91 227.958 29.9 228.588 30.59C229.248 31.28 230.178 31.625 231.378 31.625C232.728 31.625 233.853 31.25 234.753 30.5L236.103 33.605C235.443 34.175 234.648 34.595 233.718 34.865C232.818 35.135 231.873 35.27 230.883 35.27ZM219.273 14.705V11.15H234.483V14.705H219.273ZM268.216 35V29.96L267.991 29.015V20.42C267.991 18.59 267.451 17.18 266.371 16.19C265.321 15.17 263.731 14.66 261.601 14.66C260.191 14.66 258.811 14.9 257.461 15.38C256.111 15.83 254.971 16.445 254.041 17.225L252.241 13.985C253.471 12.995 254.941 12.245 256.651 11.735C258.391 11.195 260.206 10.925 262.096 10.925C265.366 10.925 267.886 11.72 269.656 13.31C271.426 14.9 272.311 17.33 272.311 20.6V35H268.216ZM260.386 35.27C258.616 35.27 257.056 34.97 255.706 34.37C254.386 33.77 253.366 32.945 252.646 31.895C251.926 30.815 251.566 29.6 251.566 28.25C251.566 26.96 251.866 25.79 252.466 24.74C253.096 23.69 254.101 22.85 255.481 22.22C256.891 21.59 258.781 21.275 261.151 21.275H268.711V24.38H261.331C259.171 24.38 257.716 24.74 256.966 25.46C256.216 26.18 255.841 27.05 255.841 28.07C255.841 29.24 256.306 30.185 257.236 30.905C258.166 31.595 259.456 31.94 261.106 31.94C262.726 31.94 264.136 31.58 265.336 30.86C266.566 30.14 267.451 29.09 267.991 27.71L268.846 30.68C268.276 32.09 267.271 33.215 265.831 34.055C264.391 34.865 262.576 35.27 260.386 35.27ZM290.16 35.27C287.85 35.27 285.78 34.76 283.95 33.74C282.15 32.72 280.725 31.295 279.675 29.465C278.625 27.635 278.1 25.505 278.1 23.075C278.1 20.645 278.625 18.53 279.675 16.73C280.725 14.9 282.15 13.475 283.95 12.455C285.78 11.435 287.85 10.925 290.16 10.925C292.17 10.925 293.985 11.375 295.605 12.275C297.225 13.175 298.515 14.525 299.475 16.325C300.465 18.125 300.96 20.375 300.96 23.075C300.96 25.775 300.48 28.025 299.52 29.825C298.59 31.625 297.315 32.99 295.695 33.92C294.075 34.82 292.23 35.27 290.16 35.27ZM290.52 31.49C292.02 31.49 293.37 31.145 294.57 30.455C295.8 29.765 296.76 28.79 297.45 27.53C298.17 26.24 298.53 24.755 298.53 23.075C298.53 21.365 298.17 19.895 297.45 18.665C296.76 17.405 295.8 16.43 294.57 15.74C293.37 15.05 292.02 14.705 290.52 14.705C288.99 14.705 287.625 15.05 286.425 15.74C285.225 16.43 284.265 17.405 283.545 18.665C282.825 19.895 282.465 21.365 282.465 23.075C282.465 24.755 282.825 26.24 283.545 27.53C284.265 28.79 285.225 29.765 286.425 30.455C287.625 31.145 288.99 31.49 290.52 31.49ZM298.665 35V28.565L298.935 23.03L298.485 17.495V1.61H302.805V35H298.665ZM325.784 35V29.96L325.559 29.015V20.42C325.559 18.59 325.019 17.18 323.939 16.19C322.889 15.17 321.299 14.66 319.169 14.66C317.759 14.66 316.379 14.9 315.029 15.38C313.679 15.83 312.539 16.445 311.609 17.225L309.809 13.985C311.039 12.995 312.509 12.245 314.219 11.735C315.959 11.195 317.774 10.925 319.664 10.925C322.934 10.925 325.454 11.72 327.224 13.31C328.994 14.9 329.879 17.33 329.879 20.6V35H325.784ZM317.954 35.27C316.184 35.27 314.624 34.97 313.274 34.37C311.954 33.77 310.934 32.945 310.214 31.895C309.494 30.815 309.134 29.6 309.134 28.25C309.134 26.96 309.434 25.79 310.034 24.74C310.664 23.69 311.669 22.85 313.049 22.22C314.459 21.59 316.349 21.275 318.719 21.275H326.279V24.38H318.899C316.739 24.38 315.284 24.74 314.534 25.46C313.784 26.18 313.409 27.05 313.409 28.07C313.409 29.24 313.874 30.185 314.804 30.905C315.734 31.595 317.024 31.94 318.674 31.94C320.294 31.94 321.704 31.58 322.904 30.86C324.134 30.14 325.019 29.09 325.559 27.71L326.414 30.68C325.844 32.09 324.839 33.215 323.399 34.055C321.959 34.865 320.144 35.27 317.954 35.27ZM350.519 35.27C348.539 35.27 346.724 34.82 345.074 33.92C343.454 32.99 342.149 31.625 341.159 29.825C340.199 28.025 339.719 25.775 339.719 23.075C339.719 20.375 340.184 18.125 341.114 16.325C342.074 14.525 343.364 13.175 344.984 12.275C346.634 11.375 348.479 10.925 350.519 10.925C352.859 10.925 354.929 11.435 356.729 12.455C358.529 13.475 359.954 14.9 361.004 16.73C362.054 18.53 362.579 20.645 362.579 23.075C362.579 25.505 362.054 27.635 361.004 29.465C359.954 31.295 358.529 32.72 356.729 33.74C354.929 34.76 352.859 35.27 350.519 35.27ZM337.874 43.73V11.15H342.014V17.585L341.744 23.12L342.194 28.655V43.73H337.874ZM350.159 31.49C351.689 31.49 353.054 31.145 354.254 30.455C355.484 29.765 356.444 28.79 357.134 27.53C357.854 26.24 358.214 24.755 358.214 23.075C358.214 21.365 357.854 19.895 357.134 18.665C356.444 17.405 355.484 16.43 354.254 15.74C353.054 15.05 351.689 14.705 350.159 14.705C348.659 14.705 347.294 15.05 346.064 15.74C344.864 16.43 343.904 17.405 343.184 18.665C342.494 19.895 342.149 21.365 342.149 23.075C342.149 24.755 342.494 26.24 343.184 27.53C343.904 28.79 344.864 29.765 346.064 30.455C347.294 31.145 348.659 31.49 350.159 31.49ZM376.738 35.27C374.338 35.27 372.478 34.625 371.158 33.335C369.838 32.045 369.178 30.2 369.178 27.8V5.93H373.498V27.62C373.498 28.91 373.813 29.9 374.443 30.59C375.103 31.28 376.033 31.625 377.233 31.625C378.583 31.625 379.708 31.25 380.608 30.5L381.958 33.605C381.298 34.175 380.503 34.595 379.573 34.865C378.673 35.135 377.728 35.27 376.738 35.27ZM365.128 14.705V11.15H380.338V14.705H365.128ZM394.02 35.27C392.04 35.27 390.15 35 388.35 34.46C386.58 33.92 385.185 33.26 384.165 32.48L385.965 29.06C386.985 29.75 388.245 30.335 389.745 30.815C391.245 31.295 392.775 31.535 394.335 31.535C396.345 31.535 397.785 31.25 398.655 30.68C399.555 30.11 400.005 29.315 400.005 28.295C400.005 27.545 399.735 26.96 399.195 26.54C398.655 26.12 397.935 25.805 397.035 25.595C396.165 25.385 395.19 25.205 394.11 25.055C393.03 24.875 391.95 24.665 390.87 24.425C389.79 24.155 388.8 23.795 387.9 23.345C387 22.865 386.28 22.22 385.74 21.41C385.2 20.57 384.93 19.46 384.93 18.08C384.93 16.64 385.335 15.38 386.145 14.3C386.955 13.22 388.095 12.395 389.565 11.825C391.065 11.225 392.835 10.925 394.875 10.925C396.435 10.925 398.01 11.12 399.6 11.51C401.22 11.87 402.54 12.395 403.56 13.085L401.715 16.505C400.635 15.785 399.51 15.29 398.34 15.02C397.17 14.75 396 14.615 394.83 14.615C392.94 14.615 391.53 14.93 390.6 15.56C389.67 16.16 389.205 16.94 389.205 17.9C389.205 18.71 389.475 19.34 390.015 19.79C390.585 20.21 391.305 20.54 392.175 20.78C393.075 21.02 394.065 21.23 395.145 21.41C396.225 21.56 397.305 21.77 398.385 22.04C399.465 22.28 400.44 22.625 401.31 23.075C402.21 23.525 402.93 24.155 403.47 24.965C404.04 25.775 404.325 26.855 404.325 28.205C404.325 29.645 403.905 30.89 403.065 31.94C402.225 32.99 401.04 33.815 399.51 34.415C397.98 34.985 396.15 35.27 394.02 35.27ZM429.999 35.27C427.599 35.27 425.739 34.625 424.419 33.335C423.099 32.045 422.439 30.2 422.439 27.8V5.93H426.759V27.62C426.759 28.91 427.074 29.9 427.704 30.59C428.364 31.28 429.294 31.625 430.494 31.625C431.844 31.625 432.969 31.25 433.869 30.5L435.219 33.605C434.559 34.175 433.764 34.595 432.834 34.865C431.934 35.135 430.989 35.27 429.999 35.27ZM418.389 14.705V11.15H433.599V14.705H418.389ZM449.866 35.27C447.466 35.27 445.336 34.745 443.476 33.695C441.616 32.645 440.146 31.205 439.066 29.375C437.986 27.515 437.446 25.415 437.446 23.075C437.446 20.705 437.986 18.605 439.066 16.775C440.146 14.945 441.616 13.52 443.476 12.5C445.336 11.45 447.466 10.925 449.866 10.925C452.236 10.925 454.351 11.45 456.211 12.5C458.101 13.52 459.571 14.945 460.621 16.775C461.701 18.575 462.241 20.675 462.241 23.075C462.241 25.445 461.701 27.545 460.621 29.375C459.571 31.205 458.101 32.645 456.211 33.695C454.351 34.745 452.236 35.27 449.866 35.27ZM449.866 31.49C451.396 31.49 452.761 31.145 453.961 30.455C455.191 29.765 456.151 28.79 456.841 27.53C457.531 26.24 457.876 24.755 457.876 23.075C457.876 21.365 457.531 19.895 456.841 18.665C456.151 17.405 455.191 16.43 453.961 15.74C452.761 15.05 451.396 14.705 449.866 14.705C448.336 14.705 446.971 15.05 445.771 15.74C444.571 16.43 443.611 17.405 442.891 18.665C442.171 19.895 441.811 21.365 441.811 23.075C441.811 24.755 442.171 26.24 442.891 27.53C443.611 28.79 444.571 29.765 445.771 30.455C446.971 31.145 448.336 31.49 449.866 31.49ZM564.832 35.27C563.992 35.27 563.272 34.985 562.672 34.415C562.072 33.815 561.772 33.065 561.772 32.165C561.772 31.265 562.072 30.53 562.672 29.96C563.272 29.39 563.992 29.105 564.832 29.105C565.642 29.105 566.332 29.39 566.902 29.96C567.502 30.53 567.802 31.265 567.802 32.165C567.802 33.065 567.502 33.815 566.902 34.415C566.332 34.985 565.642 35.27 564.832 35.27Z" fill="white"/>
<path d="M481.336 44C480.196 44 479.086 43.805 478.006 43.415C476.926 43.055 475.996 42.515 475.216 41.795L477.061 38.555C477.661 39.125 478.321 39.56 479.041 39.86C479.761 40.16 480.526 40.31 481.336 40.31C482.386 40.31 483.256 40.04 483.946 39.5C484.636 38.96 485.281 38 485.881 36.62L487.366 33.335L487.816 32.795L497.176 11.15H501.406L489.841 37.385C489.151 39.065 488.371 40.385 487.501 41.345C486.661 42.305 485.731 42.98 484.711 43.37C483.691 43.79 482.566 44 481.336 44ZM487.006 35.765L476.116 11.15H480.616L489.886 32.39L487.006 35.765ZM514.993 35.27C512.593 35.27 510.463 34.745 508.603 33.695C506.743 32.645 505.273 31.205 504.193 29.375C503.113 27.515 502.573 25.415 502.573 23.075C502.573 20.705 503.113 18.605 504.193 16.775C505.273 14.945 506.743 13.52 508.603 12.5C510.463 11.45 512.593 10.925 514.993 10.925C517.363 10.925 519.478 11.45 521.338 12.5C523.228 13.52 524.698 14.945 525.748 16.775C526.828 18.575 527.368 20.675 527.368 23.075C527.368 25.445 526.828 27.545 525.748 29.375C524.698 31.205 523.228 32.645 521.338 33.695C519.478 34.745 517.363 35.27 514.993 35.27ZM514.993 31.49C516.523 31.49 517.888 31.145 519.088 30.455C520.318 29.765 521.278 28.79 521.968 27.53C522.658 26.24 523.003 24.755 523.003 23.075C523.003 21.365 522.658 19.895 521.968 18.665C521.278 17.405 520.318 16.43 519.088 15.74C517.888 15.05 516.523 14.705 514.993 14.705C513.463 14.705 512.098 15.05 510.898 15.74C509.698 16.43 508.738 17.405 508.018 18.665C507.298 19.895 506.938 21.365 506.938 23.075C506.938 24.755 507.298 26.24 508.018 27.53C508.738 28.79 509.698 29.765 510.898 30.455C512.098 31.145 513.463 31.49 514.993 31.49ZM543.378 35.27C541.338 35.27 539.538 34.895 537.978 34.145C536.448 33.395 535.248 32.255 534.378 30.725C533.538 29.165 533.118 27.215 533.118 24.875V11.15H537.438V24.38C537.438 26.72 537.993 28.475 539.103 29.645C540.243 30.815 541.833 31.4 543.873 31.4C545.373 31.4 546.678 31.1 547.788 30.5C548.898 29.87 549.753 28.97 550.353 27.8C550.953 26.6 551.253 25.16 551.253 23.48V11.15H555.573V35H551.478V28.565L552.153 30.275C551.373 31.865 550.203 33.095 548.643 33.965C547.083 34.835 545.328 35.27 543.378 35.27Z" fill="url(#paint0_linear_1_169)"/>
<defs>
<linearGradient id="paint0_linear_1_169" x1="474" y1="18" x2="553.5" y2="27.4999" gradientUnits="userSpaceOnUse">
<stop stop-color="#BE29D8"/>
<stop offset="0.604167" stop-color="#E93D57"/>
<stop offset="1" stop-color="#F7C23B"/>
</linearGradient>
</defs>
</svg>
