<svg width="235" height="175" viewBox="0 0 235 175" fill="none" xmlns="http://www.w3.org/2000/svg">
<rect y="53" width="16" height="121" rx="8" fill="white"/>
<rect x="44" y="91" width="16" height="83" rx="8" fill="white"/>
<rect x="87" width="16" height="175" rx="8" fill="white"/>
<rect x="131" y="69" width="16" height="105" rx="8" fill="white"/>
<rect x="175" y="21" width="16" height="154" rx="8" fill="white"/>
<rect x="219" y="58" width="16" height="117" rx="8" fill="white"/>
<rect y="121" width="16" height="53" rx="8" fill="url(#paint0_linear_1_119)"/>
<rect x="44" y="144" width="16" height="30" rx="8" fill="url(#paint1_linear_1_119)"/>
<rect x="87" y="88" width="16" height="87" rx="8" fill="url(#paint2_linear_1_119)"/>
<rect x="131" y="134" width="16" height="40" rx="8" fill="url(#paint3_linear_1_119)"/>
<rect x="175" y="108" width="16" height="67" rx="8" fill="url(#paint4_linear_1_119)"/>
<rect x="219" y="123" width="16" height="52" rx="8" fill="url(#paint5_linear_1_119)"/>
<defs>
<linearGradient id="paint0_linear_1_119" x1="8.53333" y1="119.872" x2="25.2163" y2="125.626" gradientUnits="userSpaceOnUse">
<stop stop-color="#E93D57"/>
<stop offset="1" stop-color="#A423BA"/>
</linearGradient>
<linearGradient id="paint1_linear_1_119" x1="52.5333" y1="143.362" x2="66.1469" y2="151.656" gradientUnits="userSpaceOnUse">
<stop stop-color="#E93D57"/>
<stop offset="1" stop-color="#A423BA"/>
</linearGradient>
<linearGradient id="paint2_linear_1_119" x1="95.5333" y1="86.149" x2="113.411" y2="89.905" gradientUnits="userSpaceOnUse">
<stop stop-color="#E93D57"/>
<stop offset="1" stop-color="#A423BA"/>
</linearGradient>
<linearGradient id="paint3_linear_1_119" x1="139.533" y1="133.149" x2="154.976" y2="140.206" gradientUnits="userSpaceOnUse">
<stop stop-color="#E93D57"/>
<stop offset="1" stop-color="#A423BA"/>
</linearGradient>
<linearGradient id="paint4_linear_1_119" x1="183.533" y1="106.574" x2="200.907" y2="111.314" gradientUnits="userSpaceOnUse">
<stop stop-color="#E93D57"/>
<stop offset="1" stop-color="#A423BA"/>
</linearGradient>
<linearGradient id="paint5_linear_1_119" x1="227.533" y1="121.894" x2="244.148" y2="127.734" gradientUnits="userSpaceOnUse">
<stop stop-color="#E93D57"/>
<stop offset="1" stop-color="#A423BA"/>
</linearGradient>
</defs>
</svg>
