<svg width="153" height="153" viewBox="0 0 153 153" fill="none" xmlns="http://www.w3.org/2000/svg">
<path d="M76.5 52C63.0106 52 50.3291 57.255 40.7906 66.7906C31.252 76.3261 26 89.0076 26 102.5C26 115.992 31.255 128.671 40.7906 138.209C50.3261 147.748 63.0076 153 76.5 153C89.9924 153 102.671 147.745 112.209 138.209C121.748 128.674 127 115.992 127 102.5C127 89.0076 121.745 76.3291 112.209 66.7906C102.674 57.252 89.9894 52 76.5 52ZM108.006 134.006C99.5904 142.422 88.4002 147.059 76.5 147.059C64.5998 147.059 53.4096 142.422 44.9939 134.006C36.5783 125.59 31.9412 114.4 31.9412 102.5C31.9412 90.5998 36.5783 79.4096 44.9939 70.9939C53.4096 62.5783 64.5998 57.9412 76.5 57.9412C87.405 57.9412 97.6833 61.8713 105.805 68.9947L74.3998 100.4C73.2383 101.561 73.2383 103.439 74.3998 104.6C74.9791 105.179 75.7395 105.471 76.5 105.471C77.2605 105.471 78.0209 105.179 78.6002 104.6L110.005 73.1951C117.129 81.3167 121.059 91.595 121.059 102.5C121.059 114.403 116.422 125.59 108.006 134.006Z" fill="white"/>
<path d="M152.108 32.8924C150.918 31.7025 148.994 31.7025 147.805 32.8924L134.892 45.8051C133.703 46.995 133.703 48.9184 134.892 50.1083C135.486 50.7018 136.265 51 137.044 51C137.823 51 138.602 50.7018 139.195 50.1083L152.108 37.1956C153.297 36.0057 153.297 34.0824 152.108 32.8924Z" fill="white"/>
<path d="M130.498 15.3892C129.064 14.5866 127.229 15.0653 126.401 16.4574L117.402 31.6222C116.574 33.0202 117.066 34.8034 118.5 35.6089C118.971 35.8745 119.487 36 119.997 36C121.034 36 122.042 35.4747 122.597 34.5407L131.596 19.376C132.427 17.9809 131.935 16.1977 130.498 15.3892Z" fill="white"/>
<path d="M98.2968 27.8997C98.5661 27.9675 98.8355 28 99.1017 28C100.467 28 101.721 27.1297 102.089 25.8139L106.894 8.71428C107.336 7.14181 106.355 5.52213 104.705 5.10024C103.061 4.68131 101.355 5.61358 100.913 7.18606L96.105 24.2856C95.6654 25.8611 96.6467 27.4808 98.2968 27.8997Z" fill="white"/>
<path d="M77 25C78.659 25 80 23.659 80 22V4C80 2.341 78.659 1 77 1C75.341 1 74 2.341 74 4V22C74 23.659 75.341 25 77 25Z" fill="url(#paint0_linear_1_142)"/>
<path d="M51.9135 25.814C52.2819 27.1327 53.5324 28 54.9006 28C55.1668 28 55.4361 27.9675 55.7054 27.8997C57.3552 27.4778 58.3364 25.8612 57.8938 24.2858L53.0867 7.18715C52.644 5.6118 50.9478 4.67958 49.2949 5.10144C47.6419 5.5233 46.6638 7.13995 47.1064 8.71529L51.9135 25.814Z" fill="url(#paint1_linear_1_142)"/>
<path d="M34.0016 36C34.5115 36 35.0274 35.8745 35.4983 35.609C36.935 34.8036 37.4269 33.0178 36.596 31.623L27.5981 16.4612C26.7673 15.0606 24.9287 14.5879 23.5011 15.3903C22.0674 16.1986 21.5725 17.9815 22.4033 19.3763L31.4012 34.5381C31.9561 35.4777 32.9639 36 34.0016 36Z" fill="url(#paint2_linear_1_142)"/>
<path d="M5.19544 32.8924C4.00557 31.7025 2.08229 31.7025 0.892408 32.8924C-0.297469 34.0824 -0.297469 36.0057 0.892408 37.1956L13.8046 50.1083C14.398 50.7018 15.177 51 15.9561 51C16.7351 51 17.5142 50.7018 18.1076 50.1083C19.2975 48.9184 19.2975 46.995 18.1076 45.8051L5.19544 32.8924Z" fill="url(#paint3_linear_1_142)"/>
<defs>
<linearGradient id="paint0_linear_1_142" x1="74" y1="1" x2="80.7584" y2="1.21551" gradientUnits="userSpaceOnUse">
<stop offset="0.0830383" stop-color="#E93D57"/>
<stop offset="1" stop-color="#A423BA"/>
</linearGradient>
<linearGradient id="paint1_linear_1_142" x1="47" y1="5" x2="59.3571" y2="5.75381" gradientUnits="userSpaceOnUse">
<stop offset="0.0830383" stop-color="#E93D57"/>
<stop offset="1" stop-color="#A423BA"/>
</linearGradient>
<linearGradient id="paint2_linear_1_142" x1="22" y1="15" x2="38.774" y2="16.5282" gradientUnits="userSpaceOnUse">
<stop offset="0.0830383" stop-color="#E93D57"/>
<stop offset="1" stop-color="#A423BA"/>
</linearGradient>
<linearGradient id="paint3_linear_1_142" x1="0" y1="32" x2="21.0805" y2="34.6888" gradientUnits="userSpaceOnUse">
<stop offset="0.0830383" stop-color="#E93D57"/>
<stop offset="1" stop-color="#A423BA"/>
</linearGradient>
</defs>
</svg>
