<svg width="200" height="200" viewBox="0 0 200 200" fill="none" xmlns="http://www.w3.org/2000/svg">
<path d="M100 97.9167H70.8335V137.5H129.167V97.9167H100Z" stroke="white" stroke-width="10" stroke-linejoin="round"/>
<path fill-rule="evenodd" clip-rule="evenodd" d="M54.1668 29.1666C53.6143 29.1666 53.0844 29.3861 52.6937 29.7768C52.303 30.1675 52.0835 30.6974 52.0835 31.25V168.75C52.0835 169.302 52.303 169.832 52.6937 170.223C53.0844 170.614 53.6143 170.833 54.1668 170.833H145.833C146.386 170.833 146.916 170.614 147.307 170.223C147.697 169.832 147.917 169.302 147.917 168.75V64.5833H118.75C117.093 64.5833 115.503 63.9248 114.331 62.7527C113.159 61.5806 112.5 59.9909 112.5 58.3333V29.1666H54.1668ZM125 38.0052L139.078 52.0833H125V38.0052ZM39.5835 31.25C39.5835 23.1958 46.1127 16.6666 54.1668 16.6666H118.75C120.407 16.6666 121.997 17.325 123.17 18.4968L158.587 53.9135C159.167 54.4939 159.627 55.183 159.941 55.9414C160.255 56.6997 160.417 57.5125 160.417 58.3333V168.75C160.417 176.804 153.888 183.333 145.833 183.333H54.1668C46.1127 183.333 39.5835 176.804 39.5835 168.75V31.25Z" fill="white"/>
</svg>
