<svg width="100" height="100" viewBox="0 0 100 100" fill="none" xmlns="http://www.w3.org/2000/svg">
<g id="arrow">
<path id="Vector" opacity="0.1" d="M12.5 50C12.5 19.1187 19.1187 12.5 50 12.5C80.8812 12.5 87.5 19.1187 87.5 50C87.5 80.8812 80.8812 87.5 50 87.5C19.1187 87.5 12.5 80.8812 12.5 50Z" fill="white"/>
<path id="Vector_2" d="M12.5 50C12.5 19.1187 19.1187 12.5 50 12.5C80.8812 12.5 87.5 19.1187 87.5 50C87.5 80.8812 80.8812 87.5 50 87.5C19.1187 87.5 12.5 80.8812 12.5 50Z" stroke="white" stroke-width="8.33333"/>
<path id="Vector_3" d="M66.6666 50H33.3333" stroke="white" stroke-width="8.33333" stroke-linecap="round" stroke-linejoin="round"/>
<path id="Vector_4" d="M54.1667 62.5L66.3042 50.3625C66.5042 50.1625 66.5042 49.8375 66.3042 49.6375L54.1667 37.5" stroke="white" stroke-width="8.33333" stroke-linecap="round" stroke-linejoin="round"/>
</g>
</svg>
