<svg width="1267" height="1755" viewBox="0 0 1267 1755" fill="none" xmlns="http://www.w3.org/2000/svg">
<g clip-path="url(#clip0_149_199)">
<rect width="1267" height="1755" fill="#1C1A1A"/>
<g filter="url(#filter0_f_149_199)">
<rect x="-431.995" y="1710.54" width="1743.07" height="456.757" transform="rotate(-47 -431.995 1710.54)" fill="url(#paint0_linear_149_199)"/>
</g>
<g clip-path="url(#clip1_149_199)" filter="url(#filter1_f_149_199)">
<path d="M1044.23 830.041L962.833 922.042L983.338 940.184L1064.73 848.183L1044.23 830.041Z" fill="url(#paint1_linear_149_199)"/>
<path d="M944.735 942.462L926.593 962.967L947.098 981.109L965.24 960.604L944.735 942.462Z" fill="url(#paint2_linear_149_199)"/>
<path d="M725.064 373.013L643.668 465.015L664.174 483.157L745.57 391.155L725.064 373.013Z" fill="url(#paint3_linear_149_199)"/>
<path d="M625.56 485.415L607.418 505.921L627.924 524.063L646.066 503.557L625.56 485.415Z" fill="url(#paint4_linear_149_199)"/>
<path d="M1128.39 333.65C1125.46 333.646 1122.34 333.471 1119.05 333.489C1053.87 332.173 918.361 329.123 810.614 451.103L679.081 599.774L473.081 658.09L312.641 839.434L464.215 868.932L496.501 897.496L409.344 1042.17L457.483 1084.76L433.024 1112.41L453.517 1130.54L477.976 1102.89L530.948 1149.76L659.467 1041.5L691.56 1069.9L739.31 1216.75L899.749 1035.4L932.526 823.83L1064.06 675.159C1171.82 553.361 1152.46 419.223 1143.21 354.687C1142.82 351.419 1142.27 348.344 1141.91 345.44L1140.29 333.836L1128.39 333.65ZM531.475 1113.52L496.096 1082.22L538.343 1034.47L517.85 1016.33L475.603 1064.09L444.476 1036.55L517.37 915.786L638.781 1023.2L531.475 1113.52ZM364.949 821.605L488.442 682.021L645.728 637.473L465.436 841.061L364.949 821.605ZM732.072 1008.72L702.151 1042.73L489.863 854.745L519.796 820.912L732.072 1008.72ZM873.954 1023.26L750.631 1162.66L719.063 1065.11L899.172 861.53L873.954 1023.26ZM750.385 988.214L537.927 800.419L822.031 479.298L917.922 564.136L856.175 633.928C820.591 611.234 772.854 617.08 743.948 649.753C715.212 682.232 715.057 730.519 741.918 763.072L688.381 823.585L708.874 841.715L762.411 781.203C797.995 803.897 845.721 797.869 874.639 765.378C903.374 732.899 903.53 684.612 876.668 652.059L938.415 582.266L1034.31 667.104L750.385 988.214ZM848.987 662.895C873.733 684.789 876.051 722.684 854.157 747.43C832.263 772.176 794.368 774.494 769.622 752.6C744.876 730.707 742.558 692.812 764.452 668.065C786.345 643.319 824.24 641.001 848.987 662.895ZM1116.95 508.44C1108.5 552.662 1089.84 600.435 1052.24 646.44L840.355 458.976C881.446 416.232 926.577 391.71 969.44 377.933L1116.95 508.44ZM1121.55 475.974L1001.12 369.596C1046.96 359.66 1088.14 360.25 1116.16 360.914C1120.23 388.643 1125.83 429.446 1121.55 475.974Z" fill="url(#paint5_linear_149_199)"/>
<path d="M414.895 1132.73L396.753 1153.23L417.259 1171.38L435.401 1150.87L414.895 1132.73Z" fill="url(#paint6_linear_149_199)"/>
<path d="M492.37 1152.09L441.331 1209.78L461.837 1227.92L512.876 1170.23L492.37 1152.09Z" fill="url(#paint7_linear_149_199)"/>
<path d="M423.324 1231.37L405.18 1251.87L425.685 1270.02L443.83 1249.51L423.324 1231.37Z" fill="url(#paint8_linear_149_199)"/>
<path d="M391.581 1069.43L340.542 1127.12L361.048 1145.26L412.087 1087.57L391.581 1069.43Z" fill="url(#paint9_linear_149_199)"/>
<path d="M321.96 1140.83L303.819 1161.34L324.324 1179.48L342.466 1158.97L321.96 1140.83Z" fill="url(#paint10_linear_149_199)"/>
<g opacity="0.35">
<path d="M531.475 1113.52L496.095 1082.22L538.343 1034.47L517.85 1016.33L475.602 1064.09L444.476 1036.55L517.369 915.786L638.769 1023.02L531.475 1113.52Z" fill="url(#paint11_linear_149_199)"/>
<path d="M750.385 988.214L537.926 800.419L822.03 479.298L917.922 564.136L856.175 633.928C820.591 611.234 772.854 617.08 743.947 649.753C715.212 682.232 715.057 730.519 741.918 763.072L688.381 823.585L708.874 841.715L762.411 781.203C797.995 803.897 845.721 797.869 874.639 765.378C903.374 732.899 903.529 684.612 876.668 652.058L938.415 582.266L1034.31 667.104L750.385 988.214Z" fill="url(#paint12_linear_149_199)"/>
</g>
<g opacity="0.6">
<path d="M1052.26 646.622L840.354 458.976C881.446 416.232 926.577 391.71 969.44 377.933L1116.95 508.44C1108.51 552.844 1089.86 600.617 1052.26 646.622Z" fill="url(#paint13_linear_149_199)"/>
<path d="M519.834 820.832L489.84 854.735L702.141 1042.56L732.135 1008.66L519.834 820.832Z" fill="url(#paint14_linear_149_199)"/>
<path d="M364.948 821.605L488.26 682.032L645.545 637.484L465.436 841.061L364.948 821.605Z" fill="url(#paint15_linear_149_199)"/>
<path d="M873.953 1023.26L750.449 1162.67L718.881 1065.12L898.819 861.734L873.953 1023.26Z" fill="url(#paint16_linear_149_199)"/>
<path d="M670.088 844.336L651.946 864.842L672.451 882.983L690.593 862.478L670.088 844.336Z" fill="url(#paint17_linear_149_199)"/>
</g>
</g>
<rect opacity="0.25" width="1267" height="1755" fill="#1C1A1A"/>
<path d="M119.139 1497.58L152.839 1497.58L152.839 1510.18L119.139 1510.18L119.139 1497.58ZM120.339 1526.38L158.439 1526.38L158.439 1539.38L104.239 1539.38L104.239 1469.38L157.139 1469.38L157.139 1482.38L120.339 1482.38L120.339 1526.38ZM162.843 1539.38L186.943 1507.78L186.643 1516.38L163.543 1485.58L181.043 1485.58L195.643 1505.68L189.043 1505.88L204.143 1485.58L220.743 1485.58L197.543 1516.08L197.543 1507.68L221.543 1539.38L203.843 1539.38L188.543 1517.98L195.043 1518.88L179.843 1539.38L162.843 1539.38ZM260.916 1540.18C256.383 1540.18 252.416 1539.18 249.016 1537.18C245.616 1535.18 242.949 1532.14 241.016 1528.08C239.149 1523.94 238.216 1518.74 238.216 1512.48C238.216 1506.14 239.116 1500.94 240.916 1496.88C242.716 1492.81 245.316 1489.78 248.716 1487.78C252.116 1485.78 256.183 1484.78 260.916 1484.78C265.983 1484.78 270.516 1485.94 274.516 1488.28C278.583 1490.54 281.783 1493.74 284.116 1497.88C286.516 1502.01 287.716 1506.88 287.716 1512.48C287.716 1518.14 286.516 1523.04 284.116 1527.18C281.783 1531.31 278.583 1534.51 274.516 1536.78C270.516 1539.04 265.983 1540.18 260.916 1540.18ZM229.116 1558.78L229.116 1485.58L244.016 1485.58L244.016 1496.58L243.716 1512.58L244.716 1528.48L244.716 1558.78L229.116 1558.78ZM258.216 1527.38C260.816 1527.38 263.116 1526.78 265.116 1525.58C267.183 1524.38 268.816 1522.68 270.016 1520.48C271.283 1518.21 271.916 1515.54 271.916 1512.48C271.916 1509.34 271.283 1506.68 270.016 1504.48C268.816 1502.28 267.183 1500.58 265.116 1499.38C263.116 1498.18 260.816 1497.58 258.216 1497.58C255.616 1497.58 253.283 1498.18 251.216 1499.38C249.149 1500.58 247.516 1502.28 246.316 1504.48C245.116 1506.68 244.516 1509.34 244.516 1512.48C244.516 1515.54 245.116 1518.21 246.316 1520.48C247.516 1522.68 249.149 1524.38 251.216 1525.58C253.283 1526.78 255.616 1527.38 258.216 1527.38ZM298.159 1539.38L298.159 1465.18L313.759 1465.18L313.759 1539.38L298.159 1539.38ZM353.837 1540.18C348.104 1540.18 343.004 1538.98 338.537 1536.58C334.137 1534.18 330.637 1530.91 328.037 1526.78C325.504 1522.58 324.237 1517.81 324.237 1512.48C324.237 1507.08 325.504 1502.31 328.037 1498.18C330.637 1493.98 334.137 1490.71 338.537 1488.38C343.004 1485.98 348.104 1484.78 353.837 1484.78C359.504 1484.78 364.57 1485.98 369.037 1488.38C373.504 1490.71 377.004 1493.94 379.537 1498.08C382.07 1502.21 383.337 1507.01 383.337 1512.48C383.337 1517.81 382.07 1522.58 379.537 1526.78C377.004 1530.91 373.504 1534.18 369.037 1536.58C364.57 1538.98 359.504 1540.18 353.837 1540.18ZM353.837 1527.38C356.437 1527.38 358.77 1526.78 360.837 1525.58C362.904 1524.38 364.537 1522.68 365.737 1520.48C366.937 1518.21 367.537 1515.54 367.537 1512.48C367.537 1509.34 366.937 1506.68 365.737 1504.48C364.537 1502.28 362.904 1500.58 360.837 1499.38C358.77 1498.18 356.437 1497.58 353.837 1497.58C351.237 1497.58 348.904 1498.18 346.837 1499.38C344.77 1500.58 343.104 1502.28 341.837 1504.48C340.637 1506.68 340.037 1509.34 340.037 1512.48C340.037 1515.54 340.637 1518.21 341.837 1520.48C343.104 1522.68 344.77 1524.38 346.837 1525.58C348.904 1526.78 351.237 1527.38 353.837 1527.38ZM393.764 1539.38L393.764 1485.58L408.664 1485.58L408.664 1500.78L406.564 1496.38C408.164 1492.58 410.731 1489.71 414.264 1487.78C417.798 1485.78 422.098 1484.78 427.164 1484.78L427.164 1499.18C426.498 1499.11 425.898 1499.08 425.364 1499.08C424.831 1499.01 424.264 1498.98 423.664 1498.98C419.398 1498.98 415.931 1500.21 413.264 1502.68C410.664 1505.08 409.364 1508.84 409.364 1513.98L409.364 1539.38L393.764 1539.38ZM462.75 1540.18C456.616 1540.18 451.216 1538.98 446.55 1536.58C441.95 1534.18 438.383 1530.91 435.85 1526.78C433.316 1522.58 432.05 1517.81 432.05 1512.48C432.05 1507.08 433.283 1502.31 435.75 1498.18C438.283 1493.98 441.716 1490.71 446.05 1488.38C450.383 1485.98 455.283 1484.78 460.75 1484.78C466.016 1484.78 470.75 1485.91 474.95 1488.18C479.216 1490.38 482.583 1493.58 485.05 1497.78C487.516 1501.91 488.75 1506.88 488.75 1512.68C488.75 1513.28 488.716 1513.98 488.65 1514.78C488.583 1515.51 488.516 1516.21 488.45 1516.88L444.75 1516.88L444.75 1507.78L480.25 1507.78L474.25 1510.48C474.25 1507.68 473.683 1505.24 472.55 1503.18C471.416 1501.11 469.85 1499.51 467.85 1498.38C465.85 1497.18 463.516 1496.58 460.85 1496.58C458.183 1496.58 455.816 1497.18 453.75 1498.38C451.75 1499.51 450.183 1501.14 449.05 1503.28C447.916 1505.34 447.35 1507.81 447.35 1510.68L447.35 1513.08C447.35 1516.01 447.983 1518.61 449.25 1520.88C450.583 1523.08 452.416 1524.78 454.75 1525.98C457.15 1527.11 459.95 1527.68 463.15 1527.68C466.016 1527.68 468.516 1527.24 470.65 1526.38C472.85 1525.51 474.85 1524.21 476.65 1522.48L484.95 1531.48C482.483 1534.28 479.383 1536.44 475.65 1537.98C471.916 1539.44 467.616 1540.18 462.75 1540.18ZM560.156 1484.78C564.423 1484.78 568.223 1485.64 571.556 1487.38C574.956 1489.04 577.623 1491.64 579.556 1495.18C581.489 1498.64 582.456 1503.11 582.456 1508.58L582.456 1539.38L566.856 1539.38L566.856 1510.98C566.856 1506.64 565.889 1503.44 563.956 1501.38C562.089 1499.31 559.423 1498.28 555.956 1498.28C553.489 1498.28 551.256 1498.81 549.256 1499.88C547.323 1500.88 545.789 1502.44 544.656 1504.58C543.589 1506.71 543.056 1509.44 543.056 1512.78L543.056 1539.38L527.456 1539.38L527.456 1485.58L542.356 1485.58L542.356 1500.48L539.556 1495.98C541.489 1492.38 544.256 1489.61 547.856 1487.68C551.456 1485.74 555.556 1484.78 560.156 1484.78ZM623.687 1540.18C617.554 1540.18 612.154 1538.98 607.487 1536.58C602.887 1534.18 599.32 1530.91 596.787 1526.78C594.254 1522.58 592.987 1517.81 592.987 1512.48C592.987 1507.08 594.22 1502.31 596.687 1498.18C599.22 1493.98 602.654 1490.71 606.987 1488.38C611.32 1485.98 616.22 1484.78 621.687 1484.78C626.954 1484.78 631.687 1485.91 635.887 1488.18C640.154 1490.38 643.52 1493.58 645.987 1497.78C648.454 1501.91 649.687 1506.88 649.687 1512.68C649.687 1513.28 649.654 1513.98 649.587 1514.78C649.52 1515.51 649.454 1516.21 649.387 1516.88L605.687 1516.88L605.687 1507.78L641.187 1507.78L635.187 1510.48C635.187 1507.68 634.62 1505.24 633.487 1503.18C632.354 1501.11 630.787 1499.51 628.787 1498.38C626.787 1497.18 624.454 1496.58 621.787 1496.58C619.12 1496.58 616.754 1497.18 614.687 1498.38C612.687 1499.51 611.12 1501.14 609.987 1503.28C608.854 1505.34 608.287 1507.81 608.287 1510.68L608.287 1513.08C608.287 1516.01 608.92 1518.61 610.187 1520.88C611.52 1523.08 613.354 1524.78 615.687 1525.98C618.087 1527.11 620.887 1527.68 624.087 1527.68C626.954 1527.68 629.454 1527.24 631.587 1526.38C633.787 1525.51 635.787 1524.21 637.587 1522.48L645.887 1531.48C643.42 1534.28 640.32 1536.44 636.587 1537.98C632.854 1539.44 628.554 1540.18 623.687 1540.18ZM671.396 1539.38L651.996 1485.58L666.696 1485.58L682.796 1531.88L675.796 1531.88L692.596 1485.58L705.796 1485.58L722.096 1531.88L715.096 1531.88L731.696 1485.58L745.496 1485.58L725.996 1539.38L710.896 1539.38L696.596 1499.68L701.196 1499.68L686.396 1539.38L671.396 1539.38ZM813.769 1484.78C818.036 1484.78 821.836 1485.64 825.169 1487.38C828.569 1489.04 831.236 1491.64 833.169 1495.18C835.102 1498.64 836.069 1503.11 836.069 1508.58L836.069 1539.38L820.469 1539.38L820.469 1510.98C820.469 1506.64 819.502 1503.44 817.569 1501.38C815.702 1499.31 813.036 1498.28 809.569 1498.28C807.102 1498.28 804.869 1498.81 802.869 1499.88C800.936 1500.88 799.402 1502.44 798.269 1504.58C797.202 1506.71 796.669 1509.44 796.669 1512.78L796.669 1539.38L781.069 1539.38L781.069 1465.18L796.669 1465.18L796.669 1500.48L793.169 1495.98C795.102 1492.38 797.869 1489.61 801.469 1487.68C805.069 1485.74 809.169 1484.78 813.769 1484.78ZM876.2 1540.18C870.467 1540.18 865.367 1538.98 860.9 1536.58C856.5 1534.18 853 1530.91 850.4 1526.78C847.867 1522.58 846.6 1517.81 846.6 1512.48C846.6 1507.08 847.867 1502.31 850.4 1498.18C853 1493.98 856.5 1490.71 860.9 1488.38C865.367 1485.98 870.467 1484.78 876.2 1484.78C881.867 1484.78 886.934 1485.98 891.4 1488.38C895.867 1490.71 899.367 1493.94 901.9 1498.08C904.434 1502.21 905.7 1507.01 905.7 1512.48C905.7 1517.81 904.434 1522.58 901.9 1526.78C899.367 1530.91 895.867 1534.18 891.4 1536.58C886.934 1538.98 881.867 1540.18 876.2 1540.18ZM876.2 1527.38C878.8 1527.38 881.134 1526.78 883.2 1525.58C885.267 1524.38 886.9 1522.68 888.1 1520.48C889.3 1518.21 889.9 1515.54 889.9 1512.48C889.9 1509.34 889.3 1506.68 888.1 1504.48C886.9 1502.28 885.267 1500.58 883.2 1499.38C881.134 1498.18 878.8 1497.58 876.2 1497.58C873.6 1497.58 871.267 1498.18 869.2 1499.38C867.134 1500.58 865.467 1502.28 864.2 1504.48C863 1506.68 862.4 1509.34 862.4 1512.48C862.4 1515.54 863 1518.21 864.2 1520.48C865.467 1522.68 867.134 1524.38 869.2 1525.58C871.267 1526.78 873.6 1527.38 876.2 1527.38ZM916.128 1539.38L916.128 1485.58L931.028 1485.58L931.028 1500.78L928.928 1496.38C930.528 1492.58 933.094 1489.71 936.628 1487.78C940.161 1485.78 944.461 1484.78 949.528 1484.78L949.528 1499.18C948.861 1499.11 948.261 1499.08 947.728 1499.08C947.194 1499.01 946.628 1498.98 946.028 1498.98C941.761 1498.98 938.294 1500.21 935.628 1502.68C933.028 1505.08 931.728 1508.84 931.728 1513.98L931.728 1539.38L916.128 1539.38ZM958.901 1539.38L958.901 1485.58L974.501 1485.58L974.501 1539.38L958.901 1539.38ZM966.701 1478.08C963.834 1478.08 961.501 1477.24 959.701 1475.58C957.901 1473.91 957.001 1471.84 957.001 1469.38C957.001 1466.91 957.901 1464.84 959.701 1463.18C961.501 1461.51 963.834 1460.68 966.701 1460.68C969.568 1460.68 971.901 1461.48 973.701 1463.08C975.501 1464.61 976.401 1466.61 976.401 1469.08C976.401 1471.68 975.501 1473.84 973.701 1475.58C971.968 1477.24 969.634 1478.08 966.701 1478.08ZM985.279 1539.38L985.279 1529.98L1017.08 1492.38L1019.78 1497.58L985.979 1497.58L985.979 1485.58L1032.38 1485.58L1032.38 1494.98L1000.58 1532.58L997.779 1527.38L1033.28 1527.38L1033.28 1539.38L985.279 1539.38ZM1068.19 1540.18C1062.46 1540.18 1057.36 1538.98 1052.89 1536.58C1048.49 1534.18 1044.99 1530.91 1042.39 1526.78C1039.86 1522.58 1038.59 1517.81 1038.59 1512.48C1038.59 1507.08 1039.86 1502.31 1042.39 1498.18C1044.99 1493.98 1048.49 1490.71 1052.89 1488.38C1057.36 1485.98 1062.46 1484.78 1068.19 1484.78C1073.86 1484.78 1078.93 1485.98 1083.39 1488.38C1087.86 1490.71 1091.36 1493.94 1093.89 1498.08C1096.43 1502.21 1097.69 1507.01 1097.69 1512.48C1097.69 1517.81 1096.43 1522.58 1093.89 1526.78C1091.36 1530.91 1087.86 1534.18 1083.39 1536.58C1078.93 1538.98 1073.86 1540.18 1068.19 1540.18ZM1068.19 1527.38C1070.79 1527.38 1073.13 1526.78 1075.19 1525.58C1077.26 1524.38 1078.89 1522.68 1080.09 1520.48C1081.29 1518.21 1081.89 1515.54 1081.89 1512.48C1081.89 1509.34 1081.29 1506.68 1080.09 1504.48C1078.89 1502.28 1077.26 1500.58 1075.19 1499.38C1073.13 1498.18 1070.79 1497.58 1068.19 1497.58C1065.59 1497.58 1063.26 1498.18 1061.19 1499.38C1059.13 1500.58 1057.46 1502.28 1056.19 1504.48C1054.99 1506.68 1054.39 1509.34 1054.39 1512.48C1054.39 1515.54 1054.99 1518.21 1056.19 1520.48C1057.46 1522.68 1059.13 1524.38 1061.19 1525.58C1063.26 1526.78 1065.59 1527.38 1068.19 1527.38ZM1140.82 1484.78C1145.09 1484.78 1148.89 1485.64 1152.22 1487.38C1155.62 1489.04 1158.29 1491.64 1160.22 1495.18C1162.15 1498.64 1163.12 1503.11 1163.12 1508.58L1163.12 1539.38L1147.52 1539.38L1147.52 1510.98C1147.52 1506.64 1146.55 1503.44 1144.62 1501.38C1142.75 1499.31 1140.09 1498.28 1136.62 1498.28C1134.15 1498.28 1131.92 1498.81 1129.92 1499.88C1127.99 1500.88 1126.45 1502.44 1125.32 1504.58C1124.25 1506.71 1123.72 1509.44 1123.72 1512.78L1123.72 1539.38L1108.12 1539.38L1108.12 1485.58L1123.02 1485.58L1123.02 1500.48L1120.22 1495.98C1122.15 1492.38 1124.92 1489.61 1128.52 1487.68C1132.12 1485.74 1136.22 1484.78 1140.82 1484.78Z" fill="white"/>
<g filter="url(#filter2_d_149_199)">
<path d="M638.222 254.663L693.574 198.662C700.591 191.563 704.113 182.27 704.148 172.983C704.184 163.602 700.663 154.192 693.574 147.021C683.583 136.913 669.187 133.957 656.623 138.159C651.43 139.896 646.554 142.853 642.435 147.021L633.001 156.566L623.566 147.021C619.447 142.853 614.571 139.896 609.378 138.159C596.814 133.957 582.418 136.913 572.427 147.021C565.338 154.192 561.817 163.602 561.853 172.983C561.888 182.27 565.41 191.563 572.427 198.662L627.779 254.663C630.659 257.577 635.342 257.577 638.222 254.663Z" stroke="white" stroke-width="5.88"/>
</g>
<path d="M535.98 153.066C535.98 142.558 544.498 134.04 555.006 134.04L558.717 134.04C560.818 134.04 562.522 135.744 562.522 137.845L562.522 205.242C562.522 207.344 560.818 209.047 558.717 209.047L555.006 209.047C544.498 209.047 535.98 200.529 535.98 190.022L535.98 153.066Z" fill="white"/>
<path d="M550.806 136.291C550.806 128.733 549.31 83.6824 633.294 83.6824C716.519 83.6824 715.364 127.977 715.364 136.291" stroke="white" stroke-width="7.61013" stroke-linecap="round"/>
<path d="M729.432 190.022C729.432 200.53 720.914 209.048 710.407 209.048L706.696 209.048C704.594 209.048 702.891 207.344 702.891 205.243L702.891 137.846C702.891 135.744 704.594 134.041 706.696 134.041L710.407 134.041C720.914 134.041 729.432 142.559 729.432 153.066L729.432 190.022Z" fill="white"/>
<path d="M703.266 138.66C703.387 146.598 697.092 147.186 694.446 144.246L703.56 158.064L703.266 138.66Z" fill="white" stroke="white" stroke-width="0.588"/>
<path d="M562.146 141.307C561.564 146.55 567.33 149.671 571.154 144.682L571.261 144.541C571.225 144.588 571.19 144.636 571.154 144.682L559.554 160.123L562.146 141.307Z" fill="white"/>
<path d="M562.146 141.307C561.558 146.599 567.439 149.729 571.261 144.541L559.554 160.123L562.146 141.307Z" stroke="white" stroke-width="0.588"/>
<path d="M696.21 199.518C700.406 194.587 703.336 197.327 703.266 201.282L706.007 184.847L696.21 199.518Z" fill="white" stroke="white" stroke-width="0.588"/>
<path d="M562.102 203.031C561.526 196.582 565.675 195.402 568.615 198.342L558.913 184.925L562.102 203.031Z" fill="white" stroke="white" stroke-width="0.588"/>
<path d="M705.03 171C684.662 169.545 683.301 196.437 648.216 196.99C647.552 197 646.923 197.371 646.622 197.963L641.265 208.499C640.601 209.804 638.727 209.779 638.099 208.456L632.662 196.998L627.174 185.436C626.555 184.132 624.718 184.082 624.03 185.351L618.213 196.075C617.904 196.644 617.288 197 616.642 196.989C582.988 196.419 581.343 168.964 561.558 171" stroke="white" stroke-width="2.94" stroke-linecap="round"/>
<line x1="737.37" y1="143.658" x2="737.37" y2="199.518" stroke="white" stroke-width="2.94" stroke-linecap="round"/>
<line x1="746.19" y1="150.714" x2="746.19" y2="191.874" stroke="white" stroke-width="2.94" stroke-linecap="round"/>
<line x1="755.01" y1="158.358" x2="755.01" y2="184.818" stroke="white" stroke-width="2.94" stroke-linecap="round"/>
<line x1="1.47" y1="-1.47" x2="57.33" y2="-1.47" transform="matrix(7.67837e-09 1 1 1.30221e-06 529.512 142.188)" stroke="white" stroke-width="2.94" stroke-linecap="round"/>
<line x1="1.47" y1="-1.47" x2="42.63" y2="-1.47" transform="matrix(-3.31189e-08 1 1 3.60833e-08 520.692 149.244)" stroke="white" stroke-width="2.94" stroke-linecap="round"/>
<line x1="1.47" y1="-1.47" x2="27.93" y2="-1.47" transform="matrix(-3.4576e-08 1 1 3.4576e-08 511.872 156.888)" stroke="white" stroke-width="2.94" stroke-linecap="round"/>
</g>
<defs>
<filter id="filter0_f_149_199" x="-1016.08" y="-148.351" width="2691" height="2754.48" filterUnits="userSpaceOnUse" color-interpolation-filters="sRGB">
<feFlood flood-opacity="0" result="BackgroundImageFix"/>
<feBlend mode="normal" in="SourceGraphic" in2="BackgroundImageFix" result="shape"/>
<feGaussianBlur stdDeviation="292.044" result="effect1_foregroundBlur_149_199"/>
</filter>
<filter id="filter1_f_149_199" x="231.121" y="303.526" width="994.355" height="998.733" filterUnits="userSpaceOnUse" color-interpolation-filters="sRGB">
<feFlood flood-opacity="0" result="BackgroundImageFix"/>
<feBlend mode="normal" in="SourceGraphic" in2="BackgroundImageFix" result="shape"/>
<feGaussianBlur stdDeviation="12.5" result="effect1_foregroundBlur_149_199"/>
</filter>
<filter id="filter2_d_149_199" x="529.513" y="115.729" width="206.976" height="185.219" filterUnits="userSpaceOnUse" color-interpolation-filters="sRGB">
<feFlood flood-opacity="0" result="BackgroundImageFix"/>
<feColorMatrix in="SourceAlpha" type="matrix" values="0 0 0 0 0 0 0 0 0 0 0 0 0 0 0 0 0 0 127 0" result="hardAlpha"/>
<feOffset dy="11.76"/>
<feGaussianBlur stdDeviation="14.7"/>
<feColorMatrix type="matrix" values="0 0 0 0 0.167843 0 0 0 0 0.027451 0 0 0 0 0.0486275 0 0 0 0.464 0"/>
<feBlend mode="normal" in2="BackgroundImageFix" result="effect1_dropShadow_149_199"/>
<feBlend mode="normal" in="SourceGraphic" in2="effect1_dropShadow_149_199" result="shape"/>
</filter>
<linearGradient id="paint0_linear_149_199" x1="-431.995" y1="1710.54" x2="1156.93" y2="2483.96" gradientUnits="userSpaceOnUse">
<stop stop-color="#F7C23B"/>
<stop offset="0.510733" stop-color="#E93D57"/>
<stop offset="1" stop-color="#A423BA"/>
</linearGradient>
<linearGradient id="paint1_linear_149_199" x1="962.833" y1="922.042" x2="1076.69" y2="883.464" gradientUnits="userSpaceOnUse">
<stop stop-color="#F7C23B"/>
<stop offset="0.510733" stop-color="#E93D57"/>
<stop offset="1" stop-color="#A423BA"/>
</linearGradient>
<linearGradient id="paint2_linear_149_199" x1="926.593" y1="962.967" x2="949.623" y2="942.784" gradientUnits="userSpaceOnUse">
<stop stop-color="#F7C23B"/>
<stop offset="0.510733" stop-color="#E93D57"/>
<stop offset="1" stop-color="#A423BA"/>
</linearGradient>
<linearGradient id="paint3_linear_149_199" x1="643.668" y1="465.015" x2="757.525" y2="426.436" gradientUnits="userSpaceOnUse">
<stop stop-color="#F7C23B"/>
<stop offset="0.510733" stop-color="#E93D57"/>
<stop offset="1" stop-color="#A423BA"/>
</linearGradient>
<linearGradient id="paint4_linear_149_199" x1="607.418" y1="505.921" x2="630.449" y2="485.737" gradientUnits="userSpaceOnUse">
<stop stop-color="#F7C23B"/>
<stop offset="0.510733" stop-color="#E93D57"/>
<stop offset="1" stop-color="#A423BA"/>
</linearGradient>
<linearGradient id="paint5_linear_149_199" x1="284.632" y1="381.49" x2="1246.25" y2="444.858" gradientUnits="userSpaceOnUse">
<stop stop-color="#F7C23B"/>
<stop offset="0.510733" stop-color="#E93D57"/>
<stop offset="1" stop-color="#A423BA"/>
</linearGradient>
<linearGradient id="paint6_linear_149_199" x1="396.753" y1="1153.23" x2="419.784" y2="1133.05" gradientUnits="userSpaceOnUse">
<stop stop-color="#F7C23B"/>
<stop offset="0.510733" stop-color="#E93D57"/>
<stop offset="1" stop-color="#A423BA"/>
</linearGradient>
<linearGradient id="paint7_linear_149_199" x1="441.331" y1="1209.78" x2="512.994" y2="1170.44" gradientUnits="userSpaceOnUse">
<stop stop-color="#F7C23B"/>
<stop offset="0.510733" stop-color="#E93D57"/>
<stop offset="1" stop-color="#A423BA"/>
</linearGradient>
<linearGradient id="paint8_linear_149_199" x1="405.18" y1="1251.87" x2="428.213" y2="1231.69" gradientUnits="userSpaceOnUse">
<stop stop-color="#F7C23B"/>
<stop offset="0.510733" stop-color="#E93D57"/>
<stop offset="1" stop-color="#A423BA"/>
</linearGradient>
<linearGradient id="paint9_linear_149_199" x1="340.542" y1="1127.12" x2="412.205" y2="1087.79" gradientUnits="userSpaceOnUse">
<stop stop-color="#F7C23B"/>
<stop offset="0.510733" stop-color="#E93D57"/>
<stop offset="1" stop-color="#A423BA"/>
</linearGradient>
<linearGradient id="paint10_linear_149_199" x1="303.819" y1="1161.34" x2="326.849" y2="1141.15" gradientUnits="userSpaceOnUse">
<stop stop-color="#F7C23B"/>
<stop offset="0.510733" stop-color="#E93D57"/>
<stop offset="1" stop-color="#A423BA"/>
</linearGradient>
<linearGradient id="paint11_linear_149_199" x1="437.389" y1="920.678" x2="654.843" y2="934.523" gradientUnits="userSpaceOnUse">
<stop offset="0.0830383" stop-color="#E93D57"/>
<stop offset="1" stop-color="#A423BA"/>
</linearGradient>
<linearGradient id="paint12_linear_149_199" x1="519.418" y1="497.806" x2="1081.46" y2="534.831" gradientUnits="userSpaceOnUse">
<stop offset="0.0830383" stop-color="#E93D57"/>
<stop offset="1" stop-color="#A423BA"/>
</linearGradient>
<linearGradient id="paint13_linear_149_199" x1="835.897" y1="386.101" x2="1140.66" y2="406.151" gradientUnits="userSpaceOnUse">
<stop offset="0.0830383" stop-color="#E93D57"/>
<stop offset="1" stop-color="#A423BA"/>
</linearGradient>
<linearGradient id="paint14_linear_149_199" x1="489.84" y1="854.735" x2="524.424" y2="817.212" gradientUnits="userSpaceOnUse">
<stop offset="0.0830383" stop-color="#E93D57"/>
<stop offset="1" stop-color="#A423BA"/>
</linearGradient>
<linearGradient id="paint15_linear_149_199" x1="354.775" y1="655.269" x2="674.558" y2="697.038" gradientUnits="userSpaceOnUse">
<stop offset="0.0830383" stop-color="#E93D57"/>
<stop offset="1" stop-color="#A423BA"/>
</linearGradient>
<linearGradient id="paint16_linear_149_199" x1="707.158" y1="873.457" x2="922.852" y2="878.373" gradientUnits="userSpaceOnUse">
<stop offset="0.0830383" stop-color="#E93D57"/>
<stop offset="1" stop-color="#A423BA"/>
</linearGradient>
<linearGradient id="paint17_linear_149_199" x1="651.946" y1="864.842" x2="674.976" y2="844.658" gradientUnits="userSpaceOnUse">
<stop offset="0.0830383" stop-color="#E93D57"/>
<stop offset="1" stop-color="#A423BA"/>
</linearGradient>
<clipPath id="clip0_149_199">
<rect width="1267" height="1755" fill="white"/>
</clipPath>
<clipPath id="clip1_149_199">
<rect width="891.318" height="895.991" fill="white" transform="translate(256.121 382.94) rotate(-3.5)"/>
</clipPath>
</defs>
</svg>
