<svg width="200" height="200" viewBox="0 0 200 200" fill="none" xmlns="http://www.w3.org/2000/svg">
<g id="Account-icon">
<path id="Vector" d="M52.825 170.718C52.825 170.718 52.4 121.25 99.575 121.25M99.575 121.25C146.325 121.25 147.175 170.718 147.175 170.718M99.575 121.25C117.179 121.25 131.45 106.979 131.45 89.375C131.45 71.7709 117.179 57.5 99.575 57.5C81.9709 57.5 67.7 71.7709 67.7 89.375C67.7 106.979 81.9709 121.25 99.575 121.25ZM185 100C185 146.944 146.944 185 100 185C53.0558 185 15 146.944 15 100C15 53.0558 53.0558 15 100 15C146.944 15 185 53.0558 185 100Z" stroke="white" stroke-width="9" stroke-linecap="round"/>
</g>
</svg>
