<svg width="200" height="200" viewBox="0 0 200 200" fill="none" xmlns="http://www.w3.org/2000/svg">
<g id="email-address-icon">
<path id="Vector 19" d="M55.7333 143.193V100.321C55.7333 99.4431 56.735 98.9411 57.4384 99.4667L99.3537 130.782C99.7361 131.068 100.262 131.065 100.641 130.775L141.485 99.5058C142.187 98.9685 143.2 99.4689 143.2 100.353V158.933C143.2 159.522 143.678 160 144.267 160H166.667C174.03 160 180 154.03 180 146.667V51.3222C180 40.399 167.585 34.1103 158.778 40.5726L100.102 83.6302C99.7244 83.9073 99.2102 83.9057 98.8344 83.6262L41.2899 40.8325C32.4934 34.2908 20 40.5693 20 51.5316V146.667C20 154.03 25.9695 160 33.3333 160H51.4667" stroke="white" stroke-width="10.6667" stroke-linecap="round"/>
</g>
</svg>
