<svg width="200" height="200" viewBox="0 0 200 200" fill="none" xmlns="http://www.w3.org/2000/svg">
<g id="pairing-icon">
<g id="Group 3">
<path id="Vector 16" d="M125.5 81.5H85.5C68.9315 81.5 55.5 94.9315 55.5 111.5V141.5C55.5 158.069 68.9315 171.5 85.5 171.5H150.5C167.069 171.5 180.5 158.069 180.5 141.5V100.5C180.5 90.0066 171.993 81.5 161.5 81.5V81.5" stroke="white" stroke-width="10" stroke-linecap="round"/>
<path id="Vector 17" d="M75 118H114C130.569 118 144 104.569 144 88V58C144 41.4315 130.569 28 114 28H49C32.4315 28 19 41.4315 19 58V100.5C19 110.165 26.835 118 36.5 118V118" stroke="white" stroke-width="10" stroke-linecap="round"/>
</g>
</g>
</svg>
