<svg width="50" height="50" viewBox="0 0 214 214" fill="none" xmlns="http://www.w3.org/2000/svg">
<g id="password-icon 1" clip-path="url(#clip0_471_640)">
<g id="Layer 2">
<g id="Layer 7">
<g id="Group">
<path id="Vector" d="M172.58 86.0514H156.159V65.5249C156.159 53.5482 150.941 34.6954 142.472 26.2266C134.003 17.7577 122.517 13 110.54 13H102.33C90.3529 13 78.8667 17.7577 70.3978 26.2266C61.929 34.6954 57.6318 53.5482 57.6318 65.5249V86.0514H41.2106C39.033 86.0514 36.9446 86.9165 35.4048 88.4563C33.865 89.996 33 92.0844 33 94.262V192.789C33 194.967 33.865 197.055 35.4048 198.595C36.9446 200.135 39.033 201 41.2106 201H172.58C174.758 201 176.846 200.135 178.386 198.595C179.926 197.055 180.791 194.967 180.791 192.789V94.262C180.791 92.0844 179.926 89.996 178.386 88.4563C176.846 86.9165 174.758 86.0514 172.58 86.0514ZM68.1827 65.5249C68.1827 57.9033 70.4849 39.7805 79.6929 32.414C85.0821 27.0247 94.7081 24.1266 102.33 24.1266H110.54C118.162 24.1266 128.632 27.0247 134.021 32.414C143.229 41.6223 145.531 57.9033 145.531 65.5249V86.0514H68.1827V65.5249ZM170.393 190.794H43.781V95.9503H170.393V190.794Z" fill="white"/>
<path id="Vector_2" d="M74.5656 153.836C79.8707 153.836 84.1713 149.535 84.1713 144.23C84.1713 138.925 79.8707 134.625 74.5656 134.625C69.2605 134.625 64.9598 138.925 64.9598 144.23C64.9598 149.535 69.2605 153.836 74.5656 153.836Z" fill="white"/>
<path id="Vector_3" d="M107.589 153.836C112.894 153.836 117.195 149.535 117.195 144.23C117.195 138.925 112.894 134.625 107.589 134.625C102.284 134.625 97.9835 138.925 97.9835 144.23C97.9835 149.535 102.284 153.836 107.589 153.836Z" fill="white"/>
<path id="Vector_4" d="M140.613 153.836C145.918 153.836 150.219 149.535 150.219 144.23C150.219 138.925 145.918 134.625 140.613 134.625C135.308 134.625 131.007 138.925 131.007 144.23C131.007 149.535 135.308 153.836 140.613 153.836Z" fill="white"/>
</g>
</g>
</g>
</g>
<defs>
<clipPath id="clip0_471_640">
<rect width="214" height="214" fill="white"/>
</clipPath>
</defs>
</svg>
