<svg width="200" height="200" viewBox="0 0 200 200" fill="none" xmlns="http://www.w3.org/2000/svg">
<g id="password-icon">
<path id="Vector 18" d="M68.125 87.5H46C40.4772 87.5 36 91.9772 36 97.5V134V175.5C36 181.023 40.4772 185.5 46 185.5H154.5C160.023 185.5 164.5 181.023 164.5 175.5V140V97.5C164.5 91.9772 160.023 87.5 154.5 87.5H132.375M68.125 87.5H100.25H132.375M68.125 87.5V47.125C68.125 29.3829 82.5079 15 100.25 15V15C117.992 15 132.375 29.3829 132.375 47.125V87.5" stroke="white" stroke-width="10"/>
<g id="Rounds">
<path id="Vector" d="M68.9773 144C73.9354 144 77.9547 139.971 77.9547 135C77.9547 130.029 73.9354 126 68.9773 126C64.0193 126 60 130.029 60 135C60 139.971 64.0193 144 68.9773 144Z" fill="white"/>
<path id="Vector_2" d="M99.8406 144C104.799 144 108.818 139.971 108.818 135C108.818 130.029 104.799 126 99.8406 126C94.8826 126 90.8633 130.029 90.8633 135C90.8633 139.971 94.8826 144 99.8406 144Z" fill="white"/>
<path id="Vector_3" d="M130.704 144C135.662 144 139.681 139.971 139.681 135C139.681 130.029 135.662 126 130.704 126C125.746 126 121.727 130.029 121.727 135C121.727 139.971 125.746 144 130.704 144Z" fill="white"/>
</g>
</g>
</svg>
