<svg width="200" height="200" viewBox="0 0 200 200" fill="none" xmlns="http://www.w3.org/2000/svg">
<g id="Account-icon">
<path id="Vector" d="M54.7125 169.138C54.7125 169.138 54.3 121.125 100.087 121.125M100.087 121.125C145.462 121.125 146.287 169.138 146.287 169.138M100.087 121.125C117.174 121.125 131.025 107.274 131.025 90.1875C131.025 73.1012 117.174 59.25 100.087 59.25C83.0012 59.25 69.15 73.1012 69.15 90.1875C69.15 107.274 83.0012 121.125 100.087 121.125ZM183 100.5C183 146.063 146.063 183 100.5 183C54.9365 183 18 146.063 18 100.5C18 54.9365 54.9365 18 100.5 18C146.063 18 183 54.9365 183 100.5Z" stroke="white" stroke-width="10" stroke-linecap="round"/>
</g>
</svg>
