<svg width="200" height="200" viewBox="0 0 200 200" fill="none" xmlns="http://www.w3.org/2000/svg">
<path d="M102.16 66.7602L38 130.92V163H70.08L134.24 98.84M102.16 66.7602L125.166 43.7535L125.181 43.7399C128.347 40.5729 129.933 38.9867 131.762 38.3925C133.373 37.8692 135.108 37.8692 136.719 38.3925C138.546 38.9863 140.131 40.5707 143.293 43.7331L157.246 57.6863C160.422 60.8624 162.011 62.4512 162.606 64.2824C163.13 65.8931 163.129 67.6282 162.606 69.239C162.012 71.0688 160.425 72.6552 157.253 75.8267L157.246 75.8335L134.24 98.84M102.16 66.7602L134.24 98.84" stroke="white" stroke-width="10" stroke-linecap="round" stroke-linejoin="round"/>
</svg>
