<!DOCTYPE svg PUBLIC "-//W3C//DTD SVG 1.1//EN" "http://www.w3.org/Graphics/SVG/1.1/DTD/svg11.dtd">
<!-- Uploaded to: SVG Repo, www.svgrepo.com, Transformed by: SVG Repo Mixer Tools -->
<svg width="100px" height="100px" viewBox="-2.4 -2.4 28.80 28.80" fill="none" xmlns="http://www.w3.org/2000/svg">
<g id="SVGRepo_bgCarrier" stroke-width="0"/>
<g id="SVGRepo_tracerCarrier" stroke-linecap="round" stroke-linejoin="round"/>
<g id="SVGRepo_iconCarrier">
<path d="M20.01 19.26C19.82 19.26 19.63 19.19 19.48 19.04L14.53 14.09C14.24 13.8 14.24 13.32 14.53 13.03C14.82 12.74 15.3 12.74 15.59 13.03L20.54 17.98C20.83 18.27 20.83 18.75 20.54 19.04C20.39 19.19 20.2 19.26 20.01 19.26Z" fill="#ffffff"/>
<path d="M10.1099 18.43C9.37995 18.43 8.67995 18.14 8.16995 17.62L3.92994 13.38C2.85994 12.31 2.85994 10.56 3.92994 9.49003L10.9999 2.42005C12.0699 1.35005 13.8199 1.35005 14.8899 2.42005L19.13 6.66004C19.65 7.18004 19.94 7.87005 19.94 8.60005C19.94 9.33005 19.65 10.03 19.13 10.54L12.0599 17.61C11.5399 18.15 10.8499 18.43 10.1099 18.43ZM12.94 3.12004C12.62 3.12004 12.2999 3.24003 12.0599 3.49003L4.98995 10.56C4.49995 11.05 4.49995 11.84 4.98995 12.33L9.22994 16.57C9.69994 17.04 10.5199 17.04 10.9999 16.57L18.07 9.50004C18.31 9.26004 18.44 8.95004 18.44 8.62004C18.44 8.29004 18.31 7.97003 18.07 7.74003L13.83 3.50004C13.58 3.24004 13.26 3.12004 12.94 3.12004Z" fill="#ffffff"/>
<path d="M8 21.75H2C1.59 21.75 1.25 21.41 1.25 21C1.25 20.59 1.59 20.25 2 20.25H8C8.41 20.25 8.75 20.59 8.75 21C8.75 21.41 8.41 21.75 8 21.75Z" fill="#ffffff"/>
<path d="M13.63 15.74C13.44 15.74 13.25 15.67 13.1 15.52L6.03 8.44998C5.74 8.15998 5.74 7.67999 6.03 7.38999C6.32 7.09999 6.8 7.09999 7.09 7.38999L14.16 14.46C14.45 14.75 14.45 15.23 14.16 15.52C14.02 15.67 13.82 15.74 13.63 15.74Z" fill="#ffffff"/>
</g>
</svg>