<!DOCTYPE svg PUBLIC "-//W3C//DTD SVG 1.1//EN" "http://www.w3.org/Graphics/SVG/1.1/DTD/svg11.dtd">
<!-- Uploaded to: SVG Repo, www.svgrepo.com, Transformed by: SVG Repo Mixer Tools -->
<svg fill="#ffffff" width="100px" height="100px" viewBox="-3.2 -3.2 38.40 38.40" version="1.1" xmlns="http://www.w3.org/2000/svg" stroke="#ffffff">
<g id="SVGRepo_bgCarrier" stroke-width="0"/>
<g id="SVGRepo_tracerCarrier" stroke-linecap="round" stroke-linejoin="round"/>
<g id="SVGRepo_iconCarrier"> <path d="M21.25 2.979c-5 0-6.333-3-12.666-3-4.084 0-6.584 3.084-6.584 3.084v27.958c0 0.552 0.448 1 1 1s1-0.448 1-1v-12.746c1.055-0.68 2.511-1.296 4.334-1.296 6.333 0 8.166 3 13.166 3s8.5-3 8.5-3v-17s-3.75 3-8.75 3zM28 15.96c-1.13 0.737-3.524 2.019-6.5 2.019-1.966 0-3.308-0.54-5.007-1.223-2.071-0.832-4.419-1.777-8.159-1.777-1.709 0-3.159 0.43-4.334 1.005v-12.108c0.753-0.685 2.394-1.897 4.584-1.897 2.941 0 4.597 0.714 6.35 1.469 1.746 0.752 3.552 1.531 6.316 1.531 2.664 0 5.004-0.737 6.75-1.529v12.509z"/> </g>
</svg>