<svg width="85" height="28" viewBox="0 0 85 28" fill="none" xmlns="http://www.w3.org/2000/svg">
<path d="M0.885 27H14.045V24.2H4.175V15.905H12.645V13.14H4.175V5.3H14.045V2.5H0.885V27ZM19.6666 27H22.6416V14.785C23.6566 12.965 25.1616 11.46 27.5766 11.46C30.1316 11.46 31.7416 13.14 31.7416 16.08V27H34.7166V15.975C34.7166 15.555 34.6816 15.17 34.6466 14.785C35.8016 12.72 37.3766 11.46 39.6166 11.46C42.1366 11.46 43.7816 13.14 43.7816 16.08V27H46.7566V15.975C46.7566 11.18 43.9916 8.66 40.2116 8.66C37.1666 8.66 35.3116 10.13 33.9116 12.055C32.8266 9.815 30.7266 8.66 28.1716 8.66C25.7216 8.66 23.9716 9.745 22.6416 11.285V9.36H19.6666V27ZM57.5475 27.49C59.8225 27.49 62.1325 26.475 63.4625 24.76V27H66.4375V15.17C66.4375 11.285 63.7775 8.66 59.2975 8.66C56.2175 8.66 53.7325 9.955 52.1925 12.055L54.4325 13.77C55.5175 12.265 57.1625 11.32 59.1925 11.32C61.7125 11.32 63.4625 12.72 63.4625 15.17V16.395L57.5125 17.375C53.7675 18.005 51.7375 19.895 51.7375 22.555C51.7375 25.565 54.0825 27.49 57.5475 27.49ZM54.7475 22.45C54.7475 20.945 55.8325 19.86 58.2475 19.44L63.4625 18.565V22.03C62.3075 23.92 60.3825 25.04 58.0375 25.04C55.9725 25.04 54.7475 23.955 54.7475 22.45ZM73.9109 4.775C75.0659 4.775 75.9759 3.83 75.9759 2.675C75.9759 1.555 75.0659 0.61 73.9109 0.61C72.7559 0.61 71.8109 1.555 71.8109 2.675C71.8109 3.83 72.7559 4.775 73.9109 4.775ZM72.4059 27H75.3809V9.36H72.4059V27ZM81.6686 27H84.6436V0.749998H81.6686V27Z" fill="#C1B6B8"/>
</svg>
