<svg width="850" height="100" viewBox="0 0 850 100" fill="none" xmlns="http://www.w3.org/2000/svg">
<rect width="850" height="100" rx="50" fill="white"/>
<path d="M575 0H800C827.614 0 850 22.3858 850 50V50C850 77.6142 827.614 100 800 100H575V0Z" fill="url(#paint0_linear_149_299)"/>
<path d="M624.019 62.62C618.279 62.62 614.184 58.21 614.184 52.75C614.184 47.29 618.139 42.88 623.669 42.88C626.959 42.88 629.654 44.49 631.299 46.87L633.924 44.84C631.684 41.83 628.079 39.8 623.669 39.8C616.004 39.8 610.789 45.75 610.789 52.75C610.789 59.75 616.144 65.7 624.019 65.7C628.604 65.7 632.349 63.74 634.624 60.66V51.105H624.264V53.94H631.334V59.47C629.619 61.395 627.064 62.62 624.019 62.62ZM656.271 62.095L654.066 60.38C652.911 61.955 650.986 63.005 648.711 63.005C644.931 63.005 642.236 60.45 642.131 56.215H655.676C655.781 55.725 655.886 55.06 655.886 54.36C655.886 50.02 652.771 46.66 647.976 46.66C642.516 46.66 639.086 50.825 639.086 56.18C639.086 61.325 642.761 65.7 648.711 65.7C652.001 65.7 654.626 64.3 656.271 62.095ZM647.906 49.18C651.021 49.18 652.806 51.35 652.911 53.94H642.341C642.971 50.895 645.001 49.18 647.906 49.18ZM661.841 59.085C661.841 63.39 664.046 65.35 667.966 65.35C669.226 65.35 670.171 65.21 671.011 64.86V62.2C670.346 62.48 669.541 62.62 668.386 62.62C666.251 62.62 664.851 61.85 664.851 59.085V50.055H670.976V47.36H664.851V42.95H661.841V47.36H658.516V50.055H661.841V59.085ZM684.957 65H687.932V52.785C689.052 50.93 690.662 49.46 693.217 49.46C695.947 49.46 697.732 51.28 697.732 54.43V65H700.707V54.325C700.707 49.32 697.767 46.66 693.812 46.66C691.187 46.66 689.367 47.78 687.932 49.355V47.36H684.957V65ZM714.745 46.66C709.04 46.66 705.19 51.035 705.19 56.18C705.19 61.325 709.04 65.7 714.745 65.7C720.415 65.7 724.3 61.325 724.3 56.18C724.3 51.035 720.415 46.66 714.745 46.66ZM714.78 62.9C711 62.9 708.305 59.855 708.305 56.18C708.305 52.505 711 49.46 714.78 49.46C718.455 49.46 721.15 52.505 721.15 56.18C721.15 59.82 718.455 62.9 714.78 62.9ZM729.824 59.085C729.824 63.39 732.029 65.35 735.949 65.35C737.209 65.35 738.154 65.21 738.994 64.86V62.2C738.329 62.48 737.524 62.62 736.369 62.62C734.234 62.62 732.834 61.85 732.834 59.085V50.055H738.959V47.36H732.834V42.95H729.824V47.36H726.499V50.055H729.824V59.085ZM745.011 42.775C746.166 42.775 747.076 41.83 747.076 40.675C747.076 39.555 746.166 38.61 745.011 38.61C743.856 38.61 742.911 39.555 742.911 40.675C742.911 41.83 743.856 42.775 745.011 42.775ZM743.506 65H746.481V47.36H743.506V65ZM750.459 47.36V50.055H753.784V65H756.794V50.055H762.919V47.36H756.794V45.12C756.794 42.81 758.124 41.445 760.119 41.445C761.134 41.445 761.939 41.76 762.604 42.25L763.934 39.765C762.954 39.205 761.659 38.75 760.049 38.75C756.199 38.75 753.784 41.445 753.784 45.19V47.36H750.459ZM768.049 42.775C769.204 42.775 770.114 41.83 770.114 40.675C770.114 39.555 769.204 38.61 768.049 38.61C766.894 38.61 765.949 39.555 765.949 40.675C765.949 41.83 766.894 42.775 768.049 42.775ZM766.544 65H769.519V47.36H766.544V65ZM791.486 62.095L789.281 60.38C788.126 61.955 786.201 63.005 783.926 63.005C780.146 63.005 777.451 60.45 777.346 56.215H790.891C790.996 55.725 791.101 55.06 791.101 54.36C791.101 50.02 787.986 46.66 783.191 46.66C777.731 46.66 774.301 50.825 774.301 56.18C774.301 61.325 777.976 65.7 783.926 65.7C787.216 65.7 789.841 64.3 791.486 62.095ZM783.121 49.18C786.236 49.18 788.021 51.35 788.126 53.94H777.556C778.186 50.895 780.216 49.18 783.121 49.18ZM794.57 56.18C794.57 61.325 798.105 65.7 803.635 65.7C806.26 65.7 808.325 64.685 809.9 62.9V65H812.875V38.75H809.9V49.46C808.325 47.675 806.26 46.66 803.635 46.66C798.105 46.66 794.57 51.035 794.57 56.18ZM797.72 56.18C797.72 52.435 800.24 49.46 803.985 49.46C806.4 49.46 808.535 50.615 809.9 52.715V59.645C808.605 61.71 806.435 62.9 803.985 62.9C800.24 62.9 797.72 59.925 797.72 56.18Z" fill="white"/>
<path d="M53.885 65H67.045V62.2H57.175V53.905H65.645V51.14H57.175V43.3H67.045V40.5H53.885V65ZM72.6666 65H75.6416V52.785C76.6566 50.965 78.1616 49.46 80.5766 49.46C83.1316 49.46 84.7416 51.14 84.7416 54.08V65H87.7166V53.975C87.7166 53.555 87.6816 53.17 87.6466 52.785C88.8016 50.72 90.3766 49.46 92.6166 49.46C95.1366 49.46 96.7816 51.14 96.7816 54.08V65H99.7566V53.975C99.7566 49.18 96.9916 46.66 93.2116 46.66C90.1666 46.66 88.3116 48.13 86.9116 50.055C85.8266 47.815 83.7266 46.66 81.1716 46.66C78.7216 46.66 76.9716 47.745 75.6416 49.285V47.36H72.6666V65ZM110.548 65.49C112.823 65.49 115.133 64.475 116.463 62.76V65H119.438V53.17C119.438 49.285 116.778 46.66 112.298 46.66C109.218 46.66 106.733 47.955 105.193 50.055L107.433 51.77C108.518 50.265 110.163 49.32 112.193 49.32C114.713 49.32 116.463 50.72 116.463 53.17V54.395L110.513 55.375C106.768 56.005 104.738 57.895 104.738 60.555C104.738 63.565 107.083 65.49 110.548 65.49ZM107.748 60.45C107.748 58.945 108.833 57.86 111.248 57.44L116.463 56.565V60.03C115.308 61.92 113.383 63.04 111.038 63.04C108.973 63.04 107.748 61.955 107.748 60.45ZM126.911 42.775C128.066 42.775 128.976 41.83 128.976 40.675C128.976 39.555 128.066 38.61 126.911 38.61C125.756 38.61 124.811 39.555 124.811 40.675C124.811 41.83 125.756 42.775 126.911 42.775ZM125.406 65H128.381V47.36H125.406V65ZM134.669 65H137.644V38.75H134.669V65Z" fill="#C1B6B8"/>
<defs>
<linearGradient id="paint0_linear_149_299" x1="575" y1="0" x2="851.106" y2="96.8483" gradientUnits="userSpaceOnUse">
<stop offset="0.0830383" stop-color="#E93D57"/>
<stop offset="1" stop-color="#A423BA"/>
</linearGradient>
</defs>
</svg>
