<svg width="275" height="100" viewBox="0 0 275 100" fill="none" xmlns="http://www.w3.org/2000/svg">
<path d="M0 50C0 22.3858 22.3858 0 50 0H225C252.614 0 275 22.3858 275 50C275 77.6142 252.614 100 225 100H50C22.3858 100 0 77.6142 0 50Z" fill="url(#paint0_linear_149_300)"/>
<path d="M49.0189 62.62C43.2789 62.62 39.1839 58.21 39.1839 52.75C39.1839 47.29 43.1389 42.88 48.6689 42.88C51.9589 42.88 54.6539 44.49 56.2989 46.87L58.9239 44.84C56.6839 41.83 53.0789 39.8 48.6689 39.8C41.0039 39.8 35.7889 45.75 35.7889 52.75C35.7889 59.75 41.1439 65.7 49.0189 65.7C53.6039 65.7 57.3489 63.74 59.6239 60.66V51.105H49.2639V53.94H56.3339V59.47C54.6189 61.395 52.0639 62.62 49.0189 62.62ZM81.2714 62.095L79.0664 60.38C77.9114 61.955 75.9864 63.005 73.7114 63.005C69.9314 63.005 67.2364 60.45 67.1314 56.215H80.6764C80.7814 55.725 80.8864 55.06 80.8864 54.36C80.8864 50.02 77.7714 46.66 72.9764 46.66C67.5164 46.66 64.0864 50.825 64.0864 56.18C64.0864 61.325 67.7614 65.7 73.7114 65.7C77.0014 65.7 79.6264 64.3 81.2714 62.095ZM72.9064 49.18C76.0214 49.18 77.8064 51.35 77.9114 53.94H67.3414C67.9714 50.895 70.0014 49.18 72.9064 49.18ZM86.8408 59.085C86.8408 63.39 89.0458 65.35 92.9658 65.35C94.2258 65.35 95.1708 65.21 96.0108 64.86V62.2C95.3458 62.48 94.5408 62.62 93.3858 62.62C91.2508 62.62 89.8508 61.85 89.8508 59.085V50.055H95.9758V47.36H89.8508V42.95H86.8408V47.36H83.5158V50.055H86.8408V59.085ZM109.957 65H112.932V52.785C114.052 50.93 115.662 49.46 118.217 49.46C120.947 49.46 122.732 51.28 122.732 54.43V65H125.707V54.325C125.707 49.32 122.767 46.66 118.812 46.66C116.187 46.66 114.367 47.78 112.932 49.355V47.36H109.957V65ZM139.745 46.66C134.04 46.66 130.19 51.035 130.19 56.18C130.19 61.325 134.04 65.7 139.745 65.7C145.415 65.7 149.3 61.325 149.3 56.18C149.3 51.035 145.415 46.66 139.745 46.66ZM139.78 62.9C136 62.9 133.305 59.855 133.305 56.18C133.305 52.505 136 49.46 139.78 49.46C143.455 49.46 146.15 52.505 146.15 56.18C146.15 59.82 143.455 62.9 139.78 62.9ZM154.824 59.085C154.824 63.39 157.029 65.35 160.949 65.35C162.209 65.35 163.154 65.21 163.994 64.86V62.2C163.329 62.48 162.524 62.62 161.369 62.62C159.234 62.62 157.834 61.85 157.834 59.085V50.055H163.959V47.36H157.834V42.95H154.824V47.36H151.499V50.055H154.824V59.085ZM170.011 42.775C171.166 42.775 172.076 41.83 172.076 40.675C172.076 39.555 171.166 38.61 170.011 38.61C168.856 38.61 167.911 39.555 167.911 40.675C167.911 41.83 168.856 42.775 170.011 42.775ZM168.506 65H171.481V47.36H168.506V65ZM175.459 47.36V50.055H178.784V65H181.794V50.055H187.919V47.36H181.794V45.12C181.794 42.81 183.124 41.445 185.119 41.445C186.134 41.445 186.939 41.76 187.604 42.25L188.934 39.765C187.954 39.205 186.659 38.75 185.049 38.75C181.199 38.75 178.784 41.445 178.784 45.19V47.36H175.459ZM193.049 42.775C194.204 42.775 195.114 41.83 195.114 40.675C195.114 39.555 194.204 38.61 193.049 38.61C191.894 38.61 190.949 39.555 190.949 40.675C190.949 41.83 191.894 42.775 193.049 42.775ZM191.544 65H194.519V47.36H191.544V65ZM216.486 62.095L214.281 60.38C213.126 61.955 211.201 63.005 208.926 63.005C205.146 63.005 202.451 60.45 202.346 56.215H215.891C215.996 55.725 216.101 55.06 216.101 54.36C216.101 50.02 212.986 46.66 208.191 46.66C202.731 46.66 199.301 50.825 199.301 56.18C199.301 61.325 202.976 65.7 208.926 65.7C212.216 65.7 214.841 64.3 216.486 62.095ZM208.121 49.18C211.236 49.18 213.021 51.35 213.126 53.94H202.556C203.186 50.895 205.216 49.18 208.121 49.18ZM219.57 56.18C219.57 61.325 223.105 65.7 228.635 65.7C231.26 65.7 233.325 64.685 234.9 62.9V65H237.875V38.75H234.9V49.46C233.325 47.675 231.26 46.66 228.635 46.66C223.105 46.66 219.57 51.035 219.57 56.18ZM222.72 56.18C222.72 52.435 225.24 49.46 228.985 49.46C231.4 49.46 233.535 50.615 234.9 52.715V59.645C233.605 61.71 231.435 62.9 228.985 62.9C225.24 62.9 222.72 59.925 222.72 56.18Z" fill="white"/>
<defs>
<linearGradient id="paint0_linear_149_300" x1="0" y1="0" x2="276.106" y2="96.8483" gradientUnits="userSpaceOnUse">
<stop offset="0.0830383" stop-color="#E93D57"/>
<stop offset="1" stop-color="#A423BA"/>
</linearGradient>
</defs>
</svg>
