<svg width="210" height="210" viewBox="0 0 210 210" fill="none" xmlns="http://www.w3.org/2000/svg">
<g filter="url(#filter0_d_149_273)">
<path d="M111.739 87.8717L113.232 89.348L111.739 87.8717L105 94.6895L98.2611 87.8717C95.3188 84.8949 91.8359 82.7826 88.1268 81.542C79.1522 78.5403 68.8695 80.6514 61.7329 87.8717C56.6698 92.9942 54.1546 99.7152 54.1801 106.416C54.2054 113.05 56.7208 119.687 61.733 124.758L101.27 164.759C103.327 166.84 106.673 166.84 108.73 164.759L148.267 124.758C153.279 119.688 155.794 113.05 155.82 106.416C155.845 99.7152 153.33 92.9942 148.267 87.8717C141.13 80.6515 130.848 78.5404 121.873 81.542C118.164 82.7826 114.681 84.895 111.739 87.8717Z" stroke="white" stroke-width="4.2"/>
</g>
<path d="M35.7 92.1897C35.7 84.6845 41.7842 78.6002 49.2895 78.6002H51.9404C53.4414 78.6002 54.6583 79.8171 54.6583 81.3181V129.459C54.6583 130.96 53.4414 132.177 51.9404 132.177H49.2895C41.7842 132.177 35.7 126.092 35.7 118.587V92.1897Z" fill="white"/>
<path d="M46.29 80.2076C46.29 74.809 45.2211 42.63 105.21 42.63C164.656 42.63 163.832 74.2692 163.832 80.2076" stroke="white" stroke-width="5.43581" stroke-linecap="round"/>
<path d="M173.88 118.587C173.88 126.092 167.796 132.177 160.29 132.177H157.64C156.139 132.177 154.922 130.96 154.922 129.459V81.3182C154.922 79.8171 156.139 78.6003 157.64 78.6003H160.29C167.796 78.6003 173.88 84.6845 173.88 92.1898V118.587Z" fill="white"/>
<path d="M155.19 81.9C155.276 87.57 150.78 87.99 148.89 85.89L155.4 95.76L155.19 81.9Z" fill="white" stroke="white" stroke-width="0.42"/>
<path d="M54.39 83.79C53.9739 87.5351 58.0929 89.7648 60.824 86.2011L60.9001 86.1C60.8748 86.1342 60.8495 86.1679 60.824 86.2011L52.538 97.23L54.39 83.79Z" fill="white"/>
<path d="M54.39 83.79C53.97 87.57 58.17 89.8063 60.9001 86.1L52.538 97.23L54.39 83.79Z" stroke="white" stroke-width="0.42"/>
<path d="M150.15 125.37C153.147 121.848 155.24 123.805 155.19 126.63L157.148 114.891L150.15 125.37Z" fill="white" stroke="white" stroke-width="0.42"/>
<path d="M54.3579 127.879C53.9465 123.273 56.91 122.43 59.01 124.53L52.08 114.947L54.3579 127.879Z" fill="white" stroke="white" stroke-width="0.42"/>
<path d="M156.45 105C141.901 103.961 140.929 123.169 115.868 123.564C115.394 123.571 114.945 123.836 114.73 124.259L110.903 131.785C110.429 132.717 109.09 132.699 108.642 131.754L104.758 123.57L100.838 115.311C100.396 114.379 99.0839 114.344 98.5924 115.25L94.4375 122.911C94.2172 123.317 93.7772 123.571 93.3151 123.564C69.2767 123.156 68.1016 103.545 53.97 105" stroke="white" stroke-width="2.1" stroke-linecap="round"/>
<line x1="179.55" y1="85.4699" x2="179.55" y2="125.37" stroke="white" stroke-width="2.1" stroke-linecap="round"/>
<line x1="185.85" y1="90.51" x2="185.85" y2="119.91" stroke="white" stroke-width="2.1" stroke-linecap="round"/>
<line x1="192.15" y1="95.97" x2="192.15" y2="114.87" stroke="white" stroke-width="2.1" stroke-linecap="round"/>
<line x1="1.05" y1="-1.05" x2="40.95" y2="-1.05" transform="matrix(-1.45705e-09 1 1 1.31134e-06 31.08 84.42)" stroke="white" stroke-width="2.1" stroke-linecap="round"/>
<line x1="1.05" y1="-1.05" x2="30.45" y2="-1.05" transform="matrix(-4.22543e-08 1 1 4.52187e-08 24.7799 89.46)" stroke="white" stroke-width="2.1" stroke-linecap="round"/>
<line x1="1.05" y1="-1.05" x2="19.95" y2="-1.05" transform="matrix(-4.37114e-08 1 1 4.37114e-08 18.48 94.92)" stroke="white" stroke-width="2.1" stroke-linecap="round"/>
<defs>
<filter id="filter0_d_149_273" x="31.08" y="65.5205" width="147.84" height="132.299" filterUnits="userSpaceOnUse" color-interpolation-filters="sRGB">
<feFlood flood-opacity="0" result="BackgroundImageFix"/>
<feColorMatrix in="SourceAlpha" type="matrix" values="0 0 0 0 0 0 0 0 0 0 0 0 0 0 0 0 0 0 127 0" result="hardAlpha"/>
<feOffset dy="8.4"/>
<feGaussianBlur stdDeviation="10.5"/>
<feColorMatrix type="matrix" values="0 0 0 0 0.167843 0 0 0 0 0.027451 0 0 0 0 0.0486275 0 0 0 0.464 0"/>
<feBlend mode="normal" in2="BackgroundImageFix" result="effect1_dropShadow_149_273"/>
<feBlend mode="normal" in="SourceGraphic" in2="effect1_dropShadow_149_273" result="shape"/>
</filter>
</defs>
</svg>
