<svg width="1837" height="1080" viewBox="0 0 1837 1080" fill="none" xmlns="http://www.w3.org/2000/svg">
<g opacity="0.5" filter="url(#filter0_f_403_640)">
<rect x="-192.705" y="928.168" width="1492.13" height="391" transform="rotate(-25 -192.705 928.168)" fill="url(#paint0_linear_403_640)"/>
</g>
<g clip-path="url(#clip0_403_640)" filter="url(#filter1_f_403_640)">
<path d="M1603.86 528.025L1512.79 580.603L1524.51 600.9L1615.57 548.322L1603.86 528.025Z" fill="url(#paint1_linear_403_640)"/>
<path d="M1492.55 592.263L1472.25 603.982L1483.97 624.279L1504.27 612.561L1492.55 592.263Z" fill="url(#paint2_linear_403_640)"/>
<path d="M1468.9 70.3179L1377.83 122.896L1389.55 143.193L1480.62 90.6152L1468.9 70.3179Z" fill="url(#paint3_linear_403_640)"/>
<path d="M1357.59 134.538L1337.29 146.257L1349.01 166.554L1369.31 154.835L1357.59 134.538Z" fill="url(#paint4_linear_403_640)"/>
<path d="M1807.01 147.915C1804.63 147.117 1802.15 146.128 1799.47 145.249C1746.92 126.475 1637.74 87.1917 1517.14 156.948L1369.98 241.912L1186.9 233.298L1007.4 336.934L1122.44 402.051L1140.89 434.009L1030.84 527.783L1058.35 575.434L1030.98 591.233L1042.69 611.518L1070.06 595.718L1100.33 648.153L1234.07 595.18L1252.41 626.947L1251.28 759.128L1430.79 655.493L1514.86 492.642L1662.02 407.679C1782.58 338.073 1803.3 223.921 1813.32 169.019C1813.9 166.262 1814.29 163.615 1814.78 161.16L1816.62 151.298L1807.01 147.915ZM1110.6 618.876L1090.38 583.856L1137.65 556.566L1125.94 536.281L1078.67 563.571L1060.89 532.761L1152.86 454.526L1222.25 574.704L1110.6 618.876ZM1054.71 336.668L1192.88 256.898L1332.66 263.456L1131 379.757L1054.71 336.668ZM1301.91 588.286L1268.39 607.772L1147.11 397.501L1180.6 378.166L1301.91 588.286ZM1413.14 638.633L1275.17 718.293L1276.04 630.528L1477.55 514.187L1413.14 638.633ZM1322.35 576.615L1200.89 366.454L1518.75 182.938L1573.55 277.856L1504.46 317.741C1481.74 289.653 1441.4 281.432 1409.06 300.104C1376.91 318.665 1363.67 357.822 1376.63 391.545L1316.73 426.127L1328.44 446.412L1388.34 411.83C1411.07 439.919 1451.45 447.989 1483.75 429.467C1515.9 410.906 1529.14 371.749 1516.18 338.026L1585.26 298.141L1640.06 393.058L1322.35 576.615ZM1490.76 339.304C1504.9 363.799 1496.49 395.191 1472 409.334C1447.5 423.476 1416.11 415.064 1401.97 390.569C1387.82 366.074 1396.24 334.682 1420.73 320.54C1445.22 306.397 1476.62 314.809 1490.76 339.304ZM1750.25 286.703C1731.38 320.308 1703.25 354.022 1660.23 381.156L1539.14 171.418C1584.11 147.88 1627.41 140.232 1665.95 140.691L1750.25 286.703ZM1762.8 261.596L1693.92 142.526C1733.84 146.911 1767.11 158.576 1789.67 166.726C1785.45 190.343 1778.92 224.989 1762.8 261.596Z" fill="url(#paint5_linear_403_640)"/>
<path d="M1010.75 602.805L990.449 614.523L1002.17 634.82L1022.47 623.102L1010.75 602.805Z" fill="url(#paint6_linear_403_640)"/>
<path d="M1068.38 639.563L1011.28 672.531L1023 692.829L1080.1 659.86L1068.38 639.563Z" fill="url(#paint7_linear_403_640)"/>
<path d="M990.796 685.17L970.497 696.888L982.215 717.188L1002.51 705.47L990.796 685.17Z" fill="url(#paint8_linear_403_640)"/>
<path d="M1009.01 545.088L951.91 578.056L963.629 598.354L1020.73 565.385L1009.01 545.088Z" fill="url(#paint9_linear_403_640)"/>
<path d="M933.101 584.139L912.804 595.857L924.523 616.154L944.82 604.436L933.101 584.139Z" fill="url(#paint10_linear_403_640)"/>
<g opacity="0.35">
<path d="M1110.6 618.876L1090.38 583.856L1137.65 556.566L1125.94 536.281L1078.67 563.571L1060.89 532.761L1152.86 454.526L1222.29 574.553L1110.6 618.876Z" fill="url(#paint11_linear_403_640)"/>
<path d="M1322.35 576.615L1200.89 366.454L1518.75 182.938L1573.55 277.856L1504.46 317.741C1481.74 289.653 1441.4 281.432 1409.06 300.104C1376.91 318.665 1363.67 357.822 1376.63 391.545L1316.73 426.127L1328.44 446.412L1388.34 411.83C1411.07 439.918 1451.45 447.988 1483.75 429.467C1515.9 410.906 1529.14 371.749 1516.18 338.026L1585.26 298.141L1640.06 393.058L1322.35 576.615Z" fill="url(#paint12_linear_403_640)"/>
</g>
<g opacity="0.6">
<path d="M1660.19 381.306L1539.14 171.418C1584.11 147.88 1627.41 140.232 1665.95 140.69L1750.25 286.703C1731.33 320.458 1703.21 354.173 1660.19 381.306Z" fill="url(#paint13_linear_403_640)"/>
<path d="M1180.65 378.111L1147.1 397.486L1268.42 607.631L1301.98 588.256L1180.65 378.111Z" fill="url(#paint14_linear_403_640)"/>
<path d="M1054.71 336.668L1192.72 256.857L1332.51 263.416L1131 379.757L1054.71 336.668Z" fill="url(#paint15_linear_403_640)"/>
<path d="M1413.14 638.633L1275.02 718.253L1275.89 630.487L1477.2 514.257L1413.14 638.633Z" fill="url(#paint16_linear_403_640)"/>
<path d="M1296.25 438.005L1275.95 449.723L1287.67 470.02L1307.96 458.302L1296.25 438.005Z" fill="url(#paint17_linear_403_640)"/>
</g>
</g>
<defs>
<filter id="filter0_f_403_640" x="-443.705" y="46.5662" width="2019.57" height="1486.97" filterUnits="userSpaceOnUse" color-interpolation-filters="sRGB">
<feFlood flood-opacity="0" result="BackgroundImageFix"/>
<feBlend mode="normal" in="SourceGraphic" in2="BackgroundImageFix" result="shape"/>
<feGaussianBlur stdDeviation="125.5" result="effect1_foregroundBlur_403_640"/>
</filter>
<filter id="filter1_f_403_640" x="867" y="-69" width="975.516" height="978.344" filterUnits="userSpaceOnUse" color-interpolation-filters="sRGB">
<feFlood flood-opacity="0" result="BackgroundImageFix"/>
<feBlend mode="normal" in="SourceGraphic" in2="BackgroundImageFix" result="shape"/>
<feGaussianBlur stdDeviation="10" result="effect1_foregroundBlur_403_640"/>
</filter>
<linearGradient id="paint0_linear_403_640" x1="-192.705" y1="928.168" x2="1167.48" y2="1590.25" gradientUnits="userSpaceOnUse">
<stop stop-color="#F7C23B"/>
<stop offset="0.510733" stop-color="#E93D57"/>
<stop offset="1" stop-color="#A423BA"/>
</linearGradient>
<linearGradient id="paint1_linear_403_640" x1="1512.79" y1="580.603" x2="1615.7" y2="580.211" gradientUnits="userSpaceOnUse">
<stop stop-color="#F7C23B"/>
<stop offset="0.510733" stop-color="#E93D57"/>
<stop offset="1" stop-color="#A423BA"/>
</linearGradient>
<linearGradient id="paint2_linear_403_640" x1="1472.25" y1="603.982" x2="1496.43" y2="593.853" gradientUnits="userSpaceOnUse">
<stop stop-color="#F7C23B"/>
<stop offset="0.510733" stop-color="#E93D57"/>
<stop offset="1" stop-color="#A423BA"/>
</linearGradient>
<linearGradient id="paint3_linear_403_640" x1="1377.83" y1="122.896" x2="1480.74" y2="122.503" gradientUnits="userSpaceOnUse">
<stop stop-color="#F7C23B"/>
<stop offset="0.510733" stop-color="#E93D57"/>
<stop offset="1" stop-color="#A423BA"/>
</linearGradient>
<linearGradient id="paint4_linear_403_640" x1="1337.29" y1="146.257" x2="1361.47" y2="136.127" gradientUnits="userSpaceOnUse">
<stop stop-color="#F7C23B"/>
<stop offset="0.510733" stop-color="#E93D57"/>
<stop offset="1" stop-color="#A423BA"/>
</linearGradient>
<linearGradient id="paint5_linear_403_640" x1="1109.05" y1="-42.4326" x2="1872.48" y2="270.207" gradientUnits="userSpaceOnUse">
<stop stop-color="#F7C23B"/>
<stop offset="0.510733" stop-color="#E93D57"/>
<stop offset="1" stop-color="#A423BA"/>
</linearGradient>
<linearGradient id="paint6_linear_403_640" x1="990.449" y1="614.523" x2="1014.63" y2="604.394" gradientUnits="userSpaceOnUse">
<stop stop-color="#F7C23B"/>
<stop offset="0.510733" stop-color="#E93D57"/>
<stop offset="1" stop-color="#A423BA"/>
</linearGradient>
<linearGradient id="paint7_linear_403_640" x1="1011.28" y1="672.531" x2="1080.14" y2="660.068" gradientUnits="userSpaceOnUse">
<stop stop-color="#F7C23B"/>
<stop offset="0.510733" stop-color="#E93D57"/>
<stop offset="1" stop-color="#A423BA"/>
</linearGradient>
<linearGradient id="paint8_linear_403_640" x1="970.497" y1="696.888" x2="994.677" y2="686.76" gradientUnits="userSpaceOnUse">
<stop stop-color="#F7C23B"/>
<stop offset="0.510733" stop-color="#E93D57"/>
<stop offset="1" stop-color="#A423BA"/>
</linearGradient>
<linearGradient id="paint9_linear_403_640" x1="951.91" y1="578.056" x2="1020.77" y2="565.592" gradientUnits="userSpaceOnUse">
<stop stop-color="#F7C23B"/>
<stop offset="0.510733" stop-color="#E93D57"/>
<stop offset="1" stop-color="#A423BA"/>
</linearGradient>
<linearGradient id="paint10_linear_403_640" x1="912.804" y1="595.857" x2="936.982" y2="585.728" gradientUnits="userSpaceOnUse">
<stop stop-color="#F7C23B"/>
<stop offset="0.510733" stop-color="#E93D57"/>
<stop offset="1" stop-color="#A423BA"/>
</linearGradient>
<linearGradient id="paint11_linear_403_640" x1="1086.61" y1="436.772" x2="1259.37" y2="507.077" gradientUnits="userSpaceOnUse">
<stop offset="0.0830383" stop-color="#E93D57"/>
<stop offset="1" stop-color="#A423BA"/>
</linearGradient>
<linearGradient id="paint12_linear_403_640" x1="1268.06" y1="115.766" x2="1714.27" y2="298.488" gradientUnits="userSpaceOnUse">
<stop offset="0.0830383" stop-color="#E93D57"/>
<stop offset="1" stop-color="#A423BA"/>
</linearGradient>
<linearGradient id="paint13_linear_403_640" x1="1555.32" y1="111.048" x2="1797.28" y2="210.105" gradientUnits="userSpaceOnUse">
<stop offset="0.0830383" stop-color="#E93D57"/>
<stop offset="1" stop-color="#A423BA"/>
</linearGradient>
<linearGradient id="paint14_linear_403_640" x1="1147.1" y1="397.486" x2="1185.36" y2="376.419" gradientUnits="userSpaceOnUse">
<stop offset="0.0830383" stop-color="#E93D57"/>
<stop offset="1" stop-color="#A423BA"/>
</linearGradient>
<linearGradient id="paint15_linear_403_640" x1="1091.63" y1="198.873" x2="1339.88" y2="319.642" gradientUnits="userSpaceOnUse">
<stop offset="0.0830383" stop-color="#E93D57"/>
<stop offset="1" stop-color="#A423BA"/>
</linearGradient>
<linearGradient id="paint16_linear_403_640" x1="1318.43" y1="471.713" x2="1492.19" y2="534.292" gradientUnits="userSpaceOnUse">
<stop offset="0.0830383" stop-color="#E93D57"/>
<stop offset="1" stop-color="#A423BA"/>
</linearGradient>
<linearGradient id="paint17_linear_403_640" x1="1275.95" y1="449.723" x2="1300.13" y2="439.594" gradientUnits="userSpaceOnUse">
<stop offset="0.0830383" stop-color="#E93D57"/>
<stop offset="1" stop-color="#A423BA"/>
</linearGradient>
<clipPath id="clip0_403_640">
<rect width="763" height="767" fill="white" transform="translate(1085.51 -49) rotate(15)"/>
</clipPath>
</defs>
</svg>
