<svg width="950" height="890" viewBox="0 0 950 890" fill="none" xmlns="http://www.w3.org/2000/svg">
<g clip-path="url(#clip0_149_247)" filter="url(#filter0_f_149_247)">
<path d="M716.856 528.025L625.789 580.603L637.508 600.9L728.575 548.322L716.856 528.025Z" fill="url(#paint0_linear_149_247)"/>
<path d="M605.551 592.263L585.253 603.982L596.972 624.279L617.269 612.561L605.551 592.263Z" fill="url(#paint1_linear_149_247)"/>
<path d="M581.899 70.318L490.832 122.896L502.55 143.193L593.617 90.6153L581.899 70.318Z" fill="url(#paint2_linear_149_247)"/>
<path d="M470.59 134.538L450.293 146.257L462.011 166.554L482.309 154.835L470.59 134.538Z" fill="url(#paint3_linear_149_247)"/>
<path d="M920.008 147.915C917.634 147.117 915.149 146.128 912.473 145.249C859.916 126.475 750.738 87.1917 630.137 156.948L482.976 241.912L299.905 233.298L120.403 336.934L235.438 402.051L253.889 434.009L143.837 527.783L171.348 575.433L143.983 591.233L155.694 611.518L183.06 595.718L213.333 648.153L347.069 595.18L365.409 626.947L364.285 759.128L543.786 655.493L627.863 492.642L775.024 407.679C895.584 338.073 916.304 223.921 926.324 169.019C926.901 166.261 927.286 163.615 927.783 161.16L929.616 151.298L920.008 147.915ZM223.604 618.876L203.385 583.856L250.652 556.566L238.941 536.281L191.673 563.571L173.885 532.761L265.862 454.526L335.247 574.704L223.604 618.876ZM167.709 336.668L305.875 256.898L445.659 263.456L244 379.757L167.709 336.668ZM414.915 588.286L381.385 607.772L260.113 397.501L293.602 378.166L414.915 588.286ZM526.143 638.633L388.168 718.293L389.037 630.528L590.546 514.187L526.143 638.633ZM435.351 576.615L313.887 366.454L631.746 182.938L686.547 277.856L617.464 317.741C594.74 289.653 554.4 281.432 522.059 300.104C489.909 318.665 476.667 357.822 489.631 391.545L429.733 426.127L441.445 446.412L501.342 411.83C524.066 439.918 564.447 447.989 596.747 429.467C628.897 410.906 642.139 371.749 629.175 338.026L698.258 298.141L753.059 393.058L435.351 576.615ZM603.76 339.304C617.902 363.799 609.49 395.191 584.995 409.334C560.5 423.476 529.108 415.064 514.966 390.569C500.823 366.074 509.235 334.682 533.73 320.54C558.225 306.397 589.617 314.809 603.76 339.304ZM863.247 286.703C844.375 320.307 816.253 354.022 773.234 381.156L652.141 171.418C697.11 147.88 740.408 140.232 778.946 140.69L863.247 286.703ZM875.798 261.596L806.925 142.526C846.837 146.911 880.108 158.576 902.674 166.726C898.449 190.343 891.915 224.989 875.798 261.596Z" fill="url(#paint4_linear_149_247)"/>
<path d="M123.746 602.805L103.449 614.523L115.168 634.82L135.465 623.102L123.746 602.805Z" fill="url(#paint5_linear_149_247)"/>
<path d="M181.383 639.563L124.28 672.531L135.998 692.829L193.101 659.86L181.383 639.563Z" fill="url(#paint6_linear_149_247)"/>
<path d="M103.796 685.17L83.4966 696.888L95.2146 717.188L115.514 705.47L103.796 685.17Z" fill="url(#paint7_linear_149_247)"/>
<path d="M122.013 545.088L64.9102 578.057L76.6288 598.354L133.732 565.385L122.013 545.088Z" fill="url(#paint8_linear_149_247)"/>
<path d="M46.1015 584.139L25.8042 595.857L37.5228 616.154L57.8201 604.436L46.1015 584.139Z" fill="url(#paint9_linear_149_247)"/>
<g opacity="0.35">
<path d="M223.604 618.876L203.385 583.856L250.652 556.566L238.941 536.281L191.673 563.571L173.885 532.761L265.862 454.526L335.287 574.553L223.604 618.876Z" fill="url(#paint10_linear_149_247)"/>
<path d="M435.351 576.615L313.887 366.454L631.746 182.938L686.547 277.856L617.464 317.741C594.74 289.653 554.4 281.432 522.059 300.104C489.909 318.665 476.667 357.822 489.631 391.545L429.733 426.127L441.445 446.412L501.342 411.83C524.066 439.918 564.447 447.989 596.747 429.467C628.897 410.906 642.139 371.749 629.175 338.026L698.258 298.141L753.059 393.058L435.351 576.615Z" fill="url(#paint11_linear_149_247)"/>
</g>
<g opacity="0.6">
<path d="M773.193 381.306L652.141 171.418C697.11 147.88 740.408 140.232 778.946 140.69L863.247 286.703C844.335 320.458 816.213 354.173 773.193 381.306Z" fill="url(#paint12_linear_149_247)"/>
<path d="M293.655 378.111L260.096 397.486L381.423 607.631L414.982 588.256L293.655 378.111Z" fill="url(#paint13_linear_149_247)"/>
<path d="M167.709 336.668L305.724 256.857L445.508 263.416L244 379.757L167.709 336.668Z" fill="url(#paint14_linear_149_247)"/>
<path d="M526.143 638.633L388.017 718.253L388.887 630.488L590.204 514.257L526.143 638.633Z" fill="url(#paint15_linear_149_247)"/>
<path d="M409.246 438.005L388.949 449.723L400.667 470.02L420.965 458.302L409.246 438.005Z" fill="url(#paint16_linear_149_247)"/>
</g>
</g>
<defs>
<filter id="filter0_f_149_247" x="-20" y="-69" width="975.516" height="978.344" filterUnits="userSpaceOnUse" color-interpolation-filters="sRGB">
<feFlood flood-opacity="0" result="BackgroundImageFix"/>
<feBlend mode="normal" in="SourceGraphic" in2="BackgroundImageFix" result="shape"/>
<feGaussianBlur stdDeviation="10" result="effect1_foregroundBlur_149_247"/>
</filter>
<linearGradient id="paint0_linear_149_247" x1="625.789" y1="580.603" x2="728.696" y2="580.211" gradientUnits="userSpaceOnUse">
<stop stop-color="#F7C23B"/>
<stop offset="0.510733" stop-color="#E93D57"/>
<stop offset="1" stop-color="#A423BA"/>
</linearGradient>
<linearGradient id="paint1_linear_149_247" x1="585.253" y1="603.982" x2="609.432" y2="593.853" gradientUnits="userSpaceOnUse">
<stop stop-color="#F7C23B"/>
<stop offset="0.510733" stop-color="#E93D57"/>
<stop offset="1" stop-color="#A423BA"/>
</linearGradient>
<linearGradient id="paint2_linear_149_247" x1="490.832" y1="122.896" x2="593.739" y2="122.503" gradientUnits="userSpaceOnUse">
<stop stop-color="#F7C23B"/>
<stop offset="0.510733" stop-color="#E93D57"/>
<stop offset="1" stop-color="#A423BA"/>
</linearGradient>
<linearGradient id="paint3_linear_149_247" x1="450.293" y1="146.257" x2="474.471" y2="136.127" gradientUnits="userSpaceOnUse">
<stop stop-color="#F7C23B"/>
<stop offset="0.510733" stop-color="#E93D57"/>
<stop offset="1" stop-color="#A423BA"/>
</linearGradient>
<linearGradient id="paint4_linear_149_247" x1="222.054" y1="-42.4327" x2="985.48" y2="270.207" gradientUnits="userSpaceOnUse">
<stop stop-color="#F7C23B"/>
<stop offset="0.510733" stop-color="#E93D57"/>
<stop offset="1" stop-color="#A423BA"/>
</linearGradient>
<linearGradient id="paint5_linear_149_247" x1="103.449" y1="614.523" x2="127.627" y2="604.394" gradientUnits="userSpaceOnUse">
<stop stop-color="#F7C23B"/>
<stop offset="0.510733" stop-color="#E93D57"/>
<stop offset="1" stop-color="#A423BA"/>
</linearGradient>
<linearGradient id="paint6_linear_149_247" x1="124.28" y1="672.531" x2="193.139" y2="660.068" gradientUnits="userSpaceOnUse">
<stop stop-color="#F7C23B"/>
<stop offset="0.510733" stop-color="#E93D57"/>
<stop offset="1" stop-color="#A423BA"/>
</linearGradient>
<linearGradient id="paint7_linear_149_247" x1="83.4966" y1="696.888" x2="107.677" y2="686.76" gradientUnits="userSpaceOnUse">
<stop stop-color="#F7C23B"/>
<stop offset="0.510733" stop-color="#E93D57"/>
<stop offset="1" stop-color="#A423BA"/>
</linearGradient>
<linearGradient id="paint8_linear_149_247" x1="64.9102" y1="578.057" x2="133.769" y2="565.593" gradientUnits="userSpaceOnUse">
<stop stop-color="#F7C23B"/>
<stop offset="0.510733" stop-color="#E93D57"/>
<stop offset="1" stop-color="#A423BA"/>
</linearGradient>
<linearGradient id="paint9_linear_149_247" x1="25.8042" y1="595.857" x2="49.9824" y2="585.728" gradientUnits="userSpaceOnUse">
<stop stop-color="#F7C23B"/>
<stop offset="0.510733" stop-color="#E93D57"/>
<stop offset="1" stop-color="#A423BA"/>
</linearGradient>
<linearGradient id="paint10_linear_149_247" x1="199.605" y1="436.772" x2="372.373" y2="507.077" gradientUnits="userSpaceOnUse">
<stop offset="0.0830383" stop-color="#E93D57"/>
<stop offset="1" stop-color="#A423BA"/>
</linearGradient>
<linearGradient id="paint11_linear_149_247" x1="381.058" y1="115.766" x2="827.269" y2="298.488" gradientUnits="userSpaceOnUse">
<stop offset="0.0830383" stop-color="#E93D57"/>
<stop offset="1" stop-color="#A423BA"/>
</linearGradient>
<linearGradient id="paint12_linear_149_247" x1="668.318" y1="111.048" x2="910.276" y2="210.105" gradientUnits="userSpaceOnUse">
<stop offset="0.0830383" stop-color="#E93D57"/>
<stop offset="1" stop-color="#A423BA"/>
</linearGradient>
<linearGradient id="paint13_linear_149_247" x1="260.096" y1="397.486" x2="298.364" y2="376.42" gradientUnits="userSpaceOnUse">
<stop offset="0.0830383" stop-color="#E93D57"/>
<stop offset="1" stop-color="#A423BA"/>
</linearGradient>
<linearGradient id="paint14_linear_149_247" x1="204.631" y1="198.873" x2="452.885" y2="319.642" gradientUnits="userSpaceOnUse">
<stop offset="0.0830383" stop-color="#E93D57"/>
<stop offset="1" stop-color="#A423BA"/>
</linearGradient>
<linearGradient id="paint15_linear_149_247" x1="431.43" y1="471.714" x2="605.194" y2="534.293" gradientUnits="userSpaceOnUse">
<stop offset="0.0830383" stop-color="#E93D57"/>
<stop offset="1" stop-color="#A423BA"/>
</linearGradient>
<linearGradient id="paint16_linear_149_247" x1="388.949" y1="449.723" x2="413.127" y2="439.594" gradientUnits="userSpaceOnUse">
<stop offset="0.0830383" stop-color="#E93D57"/>
<stop offset="1" stop-color="#A423BA"/>
</linearGradient>
<clipPath id="clip0_149_247">
<rect width="763" height="767" fill="white" transform="translate(198.514 -49) rotate(15)"/>
</clipPath>
</defs>
</svg>
