<svg width="200" height="200" viewBox="0 0 200 200" fill="none" xmlns="http://www.w3.org/2000/svg">
<g id="Chat">
<g id="Group 4">
<path id="Vector" d="M148.525 136.22L151.45 159.919C152.2 166.144 145.525 170.494 140.2 167.269L108.775 148.595C105.325 148.595 101.95 148.37 98.6499 147.92C104.2 141.395 107.5 133.146 107.5 124.221C107.5 102.922 89.0499 85.6725 66.2497 85.6725C57.5497 85.6725 49.5247 88.1474 42.8497 92.4972C42.6247 90.6223 42.5497 88.7474 42.5497 86.7975C42.5497 52.6738 72.1747 25 108.775 25C145.375 25 175 52.6738 175 86.7975C175 107.047 164.575 124.971 148.525 136.22Z" stroke="white" stroke-width="10" stroke-linecap="round" stroke-linejoin="round"/>
<path id="Vector_2" d="M107.5 124.221C107.5 133.146 104.2 141.396 98.6501 147.921C91.225 156.92 79.45 162.694 66.25 162.694L46.675 174.319C43.375 176.344 39.175 173.569 39.625 169.744L41.5 154.97C31.45 147.996 25 136.82 25 124.221C25 111.021 32.05 99.3977 42.85 92.4979C49.525 88.1481 57.55 85.6732 66.25 85.6732C89.05 85.6732 107.5 102.922 107.5 124.221Z" stroke="white" stroke-width="10" stroke-linecap="round" stroke-linejoin="round"/>
</g>
</g>
</svg>
