<svg width="150" height="150" viewBox="0 0 150 150" fill="none" xmlns="http://www.w3.org/2000/svg">
<g id="Chat">
<path id="Vector" d="M110.997 101.936L113.151 119.395C113.704 123.981 108.787 127.185 104.864 124.809L81.7141 111.052C79.1726 111.052 76.6864 110.886 74.2554 110.555C78.3439 105.748 80.7749 99.6705 80.7749 93.0957C80.7749 77.4047 67.1834 64.6973 50.3872 64.6973C43.9782 64.6973 38.0665 66.5205 33.1492 69.725C32.9835 68.3438 32.9282 66.9625 32.9282 65.526C32.9282 40.3872 54.752 20 81.7141 20C108.676 20 130.5 40.3872 130.5 65.526C130.5 80.4435 122.82 93.6483 110.997 101.936Z" stroke="white" stroke-width="8.2875" stroke-linecap="round" stroke-linejoin="round"/>
<path id="Vector_2" d="M80.775 93.0958C80.775 99.6705 78.344 105.749 74.2555 110.555C68.7857 117.185 60.1115 121.439 50.3875 121.439L35.9672 130.003C33.5362 131.495 30.4423 129.45 30.7738 126.633L32.155 115.749C24.7515 110.611 20 102.378 20 93.0958C20 83.3718 25.1935 74.8086 33.1495 69.7256C38.0668 66.5211 43.9785 64.6978 50.3875 64.6978C67.1835 64.6978 80.775 77.4048 80.775 93.0958Z" stroke="white" stroke-width="8.2875" stroke-linecap="round" stroke-linejoin="round"/>
</g>
</svg>
