<svg width="150" height="150" viewBox="0 0 150 150" fill="none" xmlns="http://www.w3.org/2000/svg">
<g id="Dashboard">
<path id="Vector" d="M81.25 74.9999C81.25 71.5481 84.0481 68.7499 87.5 68.7499H118.75C122.202 68.7499 125 71.5481 125 74.9999V118.75C125 122.202 122.202 125 118.75 125H87.5C84.0481 125 81.25 122.202 81.25 118.75V74.9999Z" stroke="white" stroke-width="9.375" stroke-linecap="round"/>
<path id="Vector_2" d="M24.9999 31.2499C24.9999 27.7981 27.7981 24.9999 31.2499 24.9999H56.2499C59.7016 24.9999 62.4999 27.7981 62.4999 31.2499V74.9999C62.4999 78.4518 59.7016 81.2499 56.2499 81.2499H31.2499C27.7981 81.2499 24.9999 78.4518 24.9999 74.9999V31.2499Z" stroke="white" stroke-width="9.375" stroke-linecap="round"/>
<path id="Vector_3" d="M24.9999 106.25C24.9999 102.798 27.7981 99.9999 31.2499 99.9999H56.2499C59.7016 99.9999 62.4999 102.798 62.4999 106.25V118.75C62.4999 122.202 59.7016 125 56.2499 125H31.2499C27.7981 125 24.9999 122.202 24.9999 118.75V106.25Z" stroke="white" stroke-width="9.375" stroke-linecap="round"/>
<path id="Vector_4" d="M81.25 31.2499C81.25 27.7981 84.0481 24.9999 87.5 24.9999H118.75C122.202 24.9999 125 27.7981 125 31.2499V43.7499C125 47.2016 122.202 49.9999 118.75 49.9999H87.5C84.0481 49.9999 81.25 47.2016 81.25 43.7499V31.2499Z" stroke="white" stroke-width="9.375" stroke-linecap="round"/>
</g>
</svg>
