<svg width="200" height="200" viewBox="0 0 200 200" fill="none" xmlns="http://www.w3.org/2000/svg">
<g id="Dashboard">
<g id="Group 6">
<path id="Vector" d="M109.562 99.5002C109.562 94.495 113.62 90.4377 118.625 90.4377H163.937C168.943 90.4377 173 94.495 173 99.5002V162.938C173 167.943 168.943 172 163.937 172H118.625C113.62 172 109.562 167.943 109.562 162.938V99.5002Z" stroke="white" stroke-width="9.66668" stroke-linecap="round"/>
<path id="Vector_2" d="M28 36.0625C28 31.0575 32.0575 27 37.0625 27H73.3125C78.3175 27 82.375 31.0575 82.375 36.0625V99.5C82.375 104.505 78.3175 108.562 73.3125 108.562H37.0625C32.0575 108.562 28 104.505 28 99.5V36.0625Z" stroke="white" stroke-width="9.66668" stroke-linecap="round"/>
<path id="Vector_3" d="M28 144.812C28 139.807 32.0575 135.75 37.0625 135.75H73.3125C78.3175 135.75 82.375 139.807 82.375 144.812V162.938C82.375 167.943 78.3175 172 73.3125 172H37.0625C32.0575 172 28 167.943 28 162.938V144.812Z" stroke="white" stroke-width="9.66668" stroke-linecap="round"/>
<path id="Vector_4" d="M109.562 36.0625C109.562 31.0575 113.62 27 118.625 27H163.937C168.943 27 173 31.0575 173 36.0625V54.1875C173 59.1925 168.943 63.25 163.937 63.25H118.625C113.62 63.25 109.562 59.1925 109.562 54.1875V36.0625Z" stroke="white" stroke-width="9.66668" stroke-linecap="round"/>
</g>
</g>
</svg>
