<svg width="151" height="134" viewBox="0 0 151 134" fill="none" xmlns="http://www.w3.org/2000/svg">
<g id="Questions">
<g id="Group">
<path id="Vector" d="M17.5584 5.96358C17.5584 5.96358 14.7684 5.96359 13.0944 7.63761C11.4203 9.31164 11.0337 12.1017 11.0337 12.1017L11.0337 36.318C10.942 53.5246 11.0337 62.8391 11.3549 63.9403C12.0432 66.2804 13.5574 67.9782 15.7139 68.9876C17.274 69.6759 18.7882 69.8594 24.386 69.8594H31.131V73.8514C31.131 76.1915 31.4063 78.3939 31.7275 79.0363C32.8287 81.1928 34.1135 80.8258 44.6669 75.182C50.1271 72.2454 54.1329 69.6915 54.5 69.6915C55.0965 69.6915 54.5 72.7995 54.5 90.8321C54.5 111.985 54.6034 112.705 55.521 114.357C56.0258 115.275 56.5823 116.248 57.5 116.845C57.5 116.845 60.571 118.757 62.245 118.771C66.7652 118.808 79.0801 118.771 79.0801 118.771L97.0208 119L105.922 124C116.109 129.552 117.393 129.965 118.495 127.762C118.816 127.12 119.688 123.911 119.688 121.571L119.5 118H126.153C134.871 118 138.665 117.538 140.5 113.5C141.28 111.802 140.749 109.366 140.749 84.0835C140.749 58.8013 141.28 56.8742 140.5 55.1765C139.628 52.2857 137.124 51.0928 134.829 50.1292C133.407 49.5327 129.966 49.5 115.099 49.5H97.6632V30.766C97.6632 12.0453 97.6173 11.357 96.6996 9.42986C96.0572 8.09921 95.0937 7.04387 93.8089 6.30972L91.8359 5.16262H78.2542C66.5537 5.16262 64.5807 5.25439 63.9842 5.89677C62.9747 6.86034 63.0665 8.19098 64.1677 9.2922C65.0395 10.164 65.2689 11.0922 77.7036 11.0922C90.6888 11.0922 90.7806 11.0922 91.4688 12.1017C92.1112 13.0193 91.4688 15.2571 91.4688 37.2816V61.4999C91.4688 61.4999 91.6783 62.4725 91 63.4999C90.3217 64.5274 89 64.4999 89 64.4999L71.2709 64.4999H52.7795L44.6669 68.7632C40.1702 71.1492 37.2294 72.9999 37 72.9999C36.7706 72.9999 36.587 71.8022 36.587 69.6915C36.587 67.3514 36.3576 65.6537 36.0364 65.3325C35 63.4999 33.8841 63.4815 27.8733 63.4815C19.5223 63.4815 19.2929 63.4356 18.3293 62.4262L17.3199 61.3708V36.1345C17.3199 14.0642 16.9324 13.542 18.3293 12.1017C20.1796 10.194 57.4464 11.0703 70.2939 11.0703C84.5639 11.0703 72.9389 7.94019 72.9389 7.38218C72.9389 6.82417 74.0549 5.22287 72.3809 5.17699C60.4969 5.17699 17.5584 5.96358 17.5584 5.96358ZM134.182 56.1843C135.055 57.3964 134.829 58.6023 134.829 58.6023V83.8541V110.283L133.682 111.385C132.581 112.532 132.489 112.532 124.138 112.532C114.044 112.532 114.273 112.394 114.09 117.671L113.952 121.158L105.922 116.845L97.8926 112.578L80.7778 112.532C63.8006 112.532 62.6047 113.408 61.6411 111.985C61.0831 111.427 60.9558 101.336 60.9558 90.1403V69.8594H76.0517C85.6415 69.8594 91.6524 69.6759 92.4783 69.3547C94.2219 68.7123 96.2867 66.7393 97.0208 64.9498C97.4338 64.0321 97.6632 61.8297 97.6632 59.306V55.1765H115.099H132.581C132.581 55.1765 133.456 55.1765 134.182 56.1843Z" fill="white"/>
<path id="Vector_2" d="M95.5526 73.6938C94.7725 74.5656 84.3568 101.362 83.898 103.702C83.4391 106.088 86.3298 107.832 88.0275 106.18C88.3946 105.813 89.1288 104.253 89.7253 102.739L90.7347 99.9396H97.755H104.729L105.326 101.958C105.647 103.06 106.289 104.62 106.748 105.446C107.482 106.639 107.895 106.868 109.088 106.73C110.098 106.639 110.786 106.226 111.199 105.446C111.796 104.39 111.612 103.656 108.767 96.0394C107.024 91.4969 104.913 85.899 104.087 83.6507C103.215 81.3565 102.114 78.3281 101.563 76.8598C101.059 75.4374 100.233 73.9232 99.6821 73.5561C98.3515 72.6384 96.4702 72.6843 95.5526 73.6938ZM100.233 88.4685L102.435 94.204L100.233 94.3417C98.9939 94.4335 96.8832 94.4335 95.5067 94.3417L92.983 94.204L95.0478 88.6979C96.1949 85.6696 97.2044 82.8706 97.342 82.5036C97.5256 82.1365 97.7091 81.9988 97.8468 82.2741C97.9385 82.5036 98.9939 85.3025 100.233 88.4685Z" fill="white"/>
<path id="Vector_3" d="M48.567 20.9269C43.6574 22.6705 40.1702 26.1578 38.2889 31.0215C37.5089 33.178 37.3712 34.371 37.5089 37.7665C37.6465 41.3913 37.876 42.2631 39.2066 44.7868C40.9961 48.0904 43.2444 50.247 46.6857 52.0824C48.8882 53.2295 51.0388 53.9523 53.8289 53.9523C56.858 53.9523 59.0286 53.2753 61.5981 51.9447L64.3971 50.4764L65.9112 52.0365C67.4713 53.6424 68.5266 53.9177 70.0408 53.1377C71.4173 52.4035 71.142 50.4305 69.4443 48.6869C68.0219 47.2186 67.976 47.081 68.5725 45.6586C70.6373 40.6572 71.0044 39.0971 70.8209 35.9311C70.4079 29.7367 66.416 23.8177 60.9557 21.3858C57.8356 20.0093 51.8248 19.7798 48.567 20.9269ZM57.698 25.6071C63.2958 27.1672 67.0583 34.1875 65.4524 40.0607C64.5806 43.1808 64.3971 43.2267 62.1946 41.2078C59.9463 39.143 58.9368 38.9595 57.6062 40.2901C56.2755 41.6207 56.4591 42.3549 58.5239 44.6032C59.5333 45.7044 60.3592 46.7139 60.3592 46.8515C60.3592 47.448 56.4591 48.5493 54.3025 48.5493C50.5859 48.5493 48.4293 47.6775 45.9057 45.1079C40.0784 39.3265 41.7302 29.6908 49.0717 26.2495C51.6412 25.0565 54.8531 24.8271 57.698 25.6071Z" fill="white"/>
</g>
</g>
</svg>
