<svg width="200" height="200" viewBox="0 0 200 200" fill="none" xmlns="http://www.w3.org/2000/svg">
<g id="Questions">
<g id="Group 5">
<path id="Vector 20" d="M122.706 79.5242V24.7834C122.706 23.7985 121.908 23 120.923 23H26.7834C25.7985 23 25 23.7985 25 24.7834V96.4372C25 97.4222 25.7985 98.2207 26.7834 98.2207H46.611C47.596 98.2207 48.3945 99.0192 48.3945 100.004V115.161C48.3945 115.898 49.2367 116.317 49.8241 115.873L72.6878 98.5817C72.9975 98.3474 73.3753 98.2207 73.7636 98.2207H78.211M122.706 79.5242V96.4372C122.706 97.4222 121.908 98.2207 120.923 98.2207H78.211M122.706 79.5242H173.217C174.202 79.5242 175 80.3227 175 81.3077V159.918C175 160.903 174.202 161.702 173.217 161.702H151.554C150.569 161.702 149.771 162.5 149.771 163.485V176.292C149.771 177.012 148.96 177.436 148.369 177.024L126.836 162.022C126.537 161.813 126.181 161.702 125.816 161.702H79.9945C79.0095 161.702 78.211 160.903 78.211 159.918V98.2207" stroke="white" stroke-width="10" stroke-linecap="round"/>
<g id="Q">
<path id="Ellipse 2" d="M73.165 77.3286C62.252 77.3286 53.7292 68.988 53.7292 59.0885C53.7292 49.189 62.252 40.8484 73.165 40.8484C84.078 40.8484 92.6008 49.189 92.6008 59.0885C92.6008 64.4781 90.1085 69.3605 86.062 72.7327C82.6438 75.5813 78.1364 77.3286 73.165 77.3286Z" stroke="white" stroke-width="7"/>
<path id="Vector 21" d="M77.7523 64.3062L91.0551 80.8286" stroke="white" stroke-width="7" stroke-linecap="round"/>
</g>
<path id="A" d="M112.615 146.049L116.618 135.614M141.055 146.049L137.302 135.614M137.302 135.614L127.7 108.915C127.56 108.526 127.012 108.521 126.864 108.906L116.618 135.614M137.302 135.614H116.618" stroke="white" stroke-width="7" stroke-linecap="round"/>
</g>
</g>
</svg>
